<?xml version="1.0" encoding="ISO-8859-1" standalone="no"?>
<!DOCTYPE svg PUBLIC "-//W3C//DTD SVG 20010904//EN" 
"http://www.w3.org/TR/2001/REC-SVG-20010904/DTD/svg10.dtd">
<svg xmlns="http://www.w3.org/2000/svg" xmlns:xlink="http://www.w3.org/1999/xlink" xml:space="preserve" >
<text style="fill:black; text-anchor:right;" x="10" y="28">Bus_Scheduling</text><line x1="10" y1="30" x2="2130" y2= "30" stroke="grey"  /><rect x="120" y="20" width="10" height="10" fill="green" />
<rect x="170" y="20" width="10" height="10" fill="green" />
<rect x="220" y="20" width="10" height="10" fill="green" />
<rect x="270" y="20" width="10" height="10" fill="green" />
<rect x="320" y="20" width="10" height="10" fill="green" />
<rect x="370" y="20" width="10" height="10" fill="green" />
<rect x="420" y="20" width="10" height="10" fill="green" />
<rect x="470" y="20" width="10" height="10" fill="green" />
<rect x="520" y="20" width="10" height="10" fill="green" />
<rect x="570" y="20" width="10" height="10" fill="green" />
<rect x="620" y="20" width="10" height="10" fill="green" />
<rect x="670" y="20" width="10" height="10" fill="green" />
<rect x="720" y="20" width="10" height="10" fill="green" />
<rect x="770" y="20" width="10" height="10" fill="green" />
<rect x="820" y="20" width="10" height="10" fill="green" />
<rect x="870" y="20" width="10" height="10" fill="green" />
<rect x="920" y="20" width="10" height="10" fill="green" />
<rect x="970" y="20" width="10" height="10" fill="green" />
<rect x="1020" y="20" width="10" height="10" fill="green" />
<rect x="1070" y="20" width="10" height="10" fill="green" />
<rect x="1120" y="20" width="10" height="10" fill="green" />
<rect x="1170" y="20" width="10" height="10" fill="green" />
<rect x="1220" y="20" width="10" height="10" fill="green" />
<rect x="1270" y="20" width="10" height="10" fill="green" />
<rect x="1320" y="20" width="10" height="10" fill="green" />
<rect x="1370" y="20" width="10" height="10" fill="green" />
<rect x="1420" y="20" width="10" height="10" fill="green" />
<rect x="1470" y="20" width="10" height="10" fill="green" />
<rect x="1520" y="20" width="10" height="10" fill="green" />
<rect x="1570" y="20" width="10" height="10" fill="green" />
<rect x="1620" y="20" width="10" height="10" fill="green" />
<rect x="1670" y="20" width="10" height="10" fill="green" />
<rect x="1720" y="20" width="10" height="10" fill="green" />
<rect x="1770" y="20" width="10" height="10" fill="green" />
<rect x="1820" y="20" width="10" height="10" fill="green" />
<rect x="1870" y="20" width="10" height="10" fill="green" />
<rect x="1920" y="20" width="10" height="10" fill="green" />
<rect x="1970" y="20" width="10" height="10" fill="green" />
<rect x="2020" y="20" width="10" height="10" fill="green" />
<rect x="2070" y="20" width="10" height="10" fill="green" />
<text style="fill:black; text-anchor:right;" x="10" y="48">Data_Distribution</text><line x1="10" y1="50" x2="2130" y2= "50" stroke="grey"  /><rect x="130" y="40" width="10" height="10" fill="green" />
<rect x="180" y="40" width="10" height="10" fill="green" />
<rect x="260" y="40" width="10" height="10" fill="green" />
<rect x="290" y="40" width="10" height="10" fill="green" />
<rect x="330" y="40" width="10" height="10" fill="green" />
<rect x="380" y="40" width="10" height="10" fill="green" />
<rect x="430" y="40" width="10" height="10" fill="green" />
<rect x="480" y="40" width="10" height="10" fill="green" />
<rect x="530" y="40" width="10" height="10" fill="green" />
<rect x="580" y="40" width="10" height="10" fill="green" />
<rect x="630" y="40" width="10" height="10" fill="green" />
<rect x="680" y="40" width="10" height="10" fill="green" />
<rect x="730" y="40" width="10" height="10" fill="green" />
<rect x="780" y="40" width="10" height="10" fill="green" />
<rect x="830" y="40" width="10" height="10" fill="green" />
<rect x="880" y="40" width="10" height="10" fill="green" />
<rect x="930" y="40" width="10" height="10" fill="green" />
<rect x="980" y="40" width="10" height="10" fill="green" />
<rect x="1030" y="40" width="10" height="10" fill="green" />
<rect x="1080" y="40" width="10" height="10" fill="green" />
<rect x="1130" y="40" width="10" height="10" fill="green" />
<rect x="1180" y="40" width="10" height="10" fill="green" />
<rect x="1230" y="40" width="10" height="10" fill="green" />
<rect x="1280" y="40" width="10" height="10" fill="green" />
<rect x="1330" y="40" width="10" height="10" fill="green" />
<rect x="1380" y="40" width="10" height="10" fill="green" />
<rect x="1430" y="40" width="10" height="10" fill="green" />
<rect x="1480" y="40" width="10" height="10" fill="green" />
<rect x="1530" y="40" width="10" height="10" fill="green" />
<rect x="1580" y="40" width="10" height="10" fill="green" />
<rect x="1630" y="40" width="10" height="10" fill="green" />
<rect x="1680" y="40" width="10" height="10" fill="green" />
<rect x="1730" y="40" width="10" height="10" fill="green" />
<rect x="1780" y="40" width="10" height="10" fill="green" />
<rect x="1830" y="40" width="10" height="10" fill="green" />
<rect x="1880" y="40" width="10" height="10" fill="green" />
<rect x="1930" y="40" width="10" height="10" fill="green" />
<rect x="1980" y="40" width="10" height="10" fill="green" />
<rect x="2030" y="40" width="10" height="10" fill="green" />
<rect x="2080" y="40" width="10" height="10" fill="green" />
<text style="fill:black; text-anchor:right;" x="10" y="68">Control_Task</text><line x1="10" y1="70" x2="2130" y2= "70" stroke="grey"  /><rect x="140" y="60" width="10" height="10" fill="green" />
<rect x="280" y="60" width="10" height="10" fill="green" />
<rect x="340" y="60" width="10" height="10" fill="green" />
<rect x="440" y="60" width="10" height="10" fill="green" />
<rect x="540" y="60" width="10" height="10" fill="green" />
<rect x="640" y="60" width="10" height="10" fill="green" />
<rect x="740" y="60" width="10" height="10" fill="green" />
<rect x="840" y="60" width="10" height="10" fill="green" />
<rect x="940" y="60" width="10" height="10" fill="green" />
<rect x="1040" y="60" width="10" height="10" fill="green" />
<rect x="1140" y="60" width="10" height="10" fill="green" />
<rect x="1240" y="60" width="10" height="10" fill="green" />
<rect x="1340" y="60" width="10" height="10" fill="green" />
<rect x="1440" y="60" width="10" height="10" fill="green" />
<rect x="1540" y="60" width="10" height="10" fill="green" />
<rect x="1640" y="60" width="10" height="10" fill="green" />
<rect x="1740" y="60" width="10" height="10" fill="green" />
<rect x="1840" y="60" width="10" height="10" fill="green" />
<rect x="1940" y="60" width="10" height="10" fill="green" />
<rect x="2040" y="60" width="10" height="10" fill="green" />
<text style="fill:black; text-anchor:right;" x="10" y="88">Radio_Task</text><line x1="10" y1="90" x2="2130" y2= "90" stroke="grey"  /><rect x="150" y="80" width="10" height="10" fill="green" />
<rect x="230" y="80" width="10" height="10" fill="green" />
<rect x="350" y="80" width="10" height="10" fill="green" />
<rect x="450" y="80" width="10" height="10" fill="green" />
<rect x="550" y="80" width="10" height="10" fill="green" />
<rect x="650" y="80" width="10" height="10" fill="green" />
<rect x="750" y="80" width="10" height="10" fill="green" />
<rect x="850" y="80" width="10" height="10" fill="green" />
<rect x="950" y="80" width="10" height="10" fill="green" />
<rect x="1050" y="80" width="10" height="10" fill="green" />
<rect x="1150" y="80" width="10" height="10" fill="green" />
<rect x="1250" y="80" width="10" height="10" fill="green" />
<rect x="1350" y="80" width="10" height="10" fill="green" />
<rect x="1450" y="80" width="10" height="10" fill="green" />
<rect x="1550" y="80" width="10" height="10" fill="green" />
<rect x="1650" y="80" width="10" height="10" fill="green" />
<rect x="1750" y="80" width="10" height="10" fill="green" />
<rect x="1850" y="80" width="10" height="10" fill="green" />
<rect x="1950" y="80" width="10" height="10" fill="green" />
<rect x="2050" y="80" width="10" height="10" fill="green" />
<text style="fill:black; text-anchor:right;" x="10" y="108">Camera_Task</text><line x1="10" y1="110" x2="2130" y2= "110" stroke="grey"  /><rect x="160" y="100" width="10" height="10" fill="green" />
<rect x="240" y="100" width="10" height="10" fill="green" />
<rect x="360" y="100" width="10" height="10" fill="green" />
<rect x="460" y="100" width="10" height="10" fill="green" />
<rect x="560" y="100" width="10" height="10" fill="green" />
<rect x="660" y="100" width="10" height="10" fill="green" />
<rect x="760" y="100" width="10" height="10" fill="green" />
<rect x="860" y="100" width="10" height="10" fill="green" />
<rect x="960" y="100" width="10" height="10" fill="green" />
<rect x="1060" y="100" width="10" height="10" fill="green" />
<rect x="1160" y="100" width="10" height="10" fill="green" />
<rect x="1260" y="100" width="10" height="10" fill="green" />
<rect x="1360" y="100" width="10" height="10" fill="green" />
<rect x="1460" y="100" width="10" height="10" fill="green" />
<rect x="1560" y="100" width="10" height="10" fill="green" />
<rect x="1660" y="100" width="10" height="10" fill="green" />
<rect x="1760" y="100" width="10" height="10" fill="green" />
<rect x="1860" y="100" width="10" height="10" fill="green" />
<rect x="1960" y="100" width="10" height="10" fill="green" />
<rect x="2060" y="100" width="10" height="10" fill="green" />
<text style="fill:black; text-anchor:right;" x="10" y="128">Measure_Task</text><line x1="10" y1="130" x2="2130" y2= "130" stroke="grey"  /><rect x="190" y="120" width="10" height="10" fill="green" />
<rect x="200" y="120" width="10" height="10" fill="green" />
<text style="fill:black; text-anchor:right;" x="10" y="148">Meteo_Task</text><line x1="10" y1="150" x2="2130" y2= "150" stroke="grey"  /><rect x="210" y="140" width="10" height="10" fill="green" />
<rect x="250" y="140" width="10" height="10" fill="green" />
<text style="fill:black; text-anchor:right;" x="10" y="168">idle</text><line x1="10" y1="170" x2="2130" y2= "170" stroke="grey"  /><rect x="300" y="160" width="10" height="10" fill="blue" />
<rect x="310" y="160" width="10" height="10" fill="blue" />
<rect x="390" y="160" width="10" height="10" fill="blue" />
<rect x="400" y="160" width="10" height="10" fill="blue" />
<rect x="410" y="160" width="10" height="10" fill="blue" />
<rect x="490" y="160" width="10" height="10" fill="blue" />
<rect x="500" y="160" width="10" height="10" fill="blue" />
<rect x="510" y="160" width="10" height="10" fill="blue" />
<rect x="590" y="160" width="10" height="10" fill="blue" />
<rect x="600" y="160" width="10" height="10" fill="blue" />
<rect x="610" y="160" width="10" height="10" fill="blue" />
<rect x="690" y="160" width="10" height="10" fill="blue" />
<rect x="700" y="160" width="10" height="10" fill="blue" />
<rect x="710" y="160" width="10" height="10" fill="blue" />
<rect x="790" y="160" width="10" height="10" fill="blue" />
<rect x="800" y="160" width="10" height="10" fill="blue" />
<rect x="810" y="160" width="10" height="10" fill="blue" />
<rect x="890" y="160" width="10" height="10" fill="blue" />
<rect x="900" y="160" width="10" height="10" fill="blue" />
<rect x="910" y="160" width="10" height="10" fill="blue" />
<rect x="990" y="160" width="10" height="10" fill="blue" />
<rect x="1000" y="160" width="10" height="10" fill="blue" />
<rect x="1010" y="160" width="10" height="10" fill="blue" />
<rect x="1090" y="160" width="10" height="10" fill="blue" />
<rect x="1100" y="160" width="10" height="10" fill="blue" />
<rect x="1110" y="160" width="10" height="10" fill="blue" />
<rect x="1190" y="160" width="10" height="10" fill="blue" />
<rect x="1200" y="160" width="10" height="10" fill="blue" />
<rect x="1210" y="160" width="10" height="10" fill="blue" />
<rect x="1290" y="160" width="10" height="10" fill="blue" />
<rect x="1300" y="160" width="10" height="10" fill="blue" />
<rect x="1310" y="160" width="10" height="10" fill="blue" />
<rect x="1390" y="160" width="10" height="10" fill="blue" />
<rect x="1400" y="160" width="10" height="10" fill="blue" />
<rect x="1410" y="160" width="10" height="10" fill="blue" />
<rect x="1490" y="160" width="10" height="10" fill="blue" />
<rect x="1500" y="160" width="10" height="10" fill="blue" />
<rect x="1510" y="160" width="10" height="10" fill="blue" />
<rect x="1590" y="160" width="10" height="10" fill="blue" />
<rect x="1600" y="160" width="10" height="10" fill="blue" />
<rect x="1610" y="160" width="10" height="10" fill="blue" />
<rect x="1690" y="160" width="10" height="10" fill="blue" />
<rect x="1700" y="160" width="10" height="10" fill="blue" />
<rect x="1710" y="160" width="10" height="10" fill="blue" />
<rect x="1790" y="160" width="10" height="10" fill="blue" />
<rect x="1800" y="160" width="10" height="10" fill="blue" />
<rect x="1810" y="160" width="10" height="10" fill="blue" />
<rect x="1890" y="160" width="10" height="10" fill="blue" />
<rect x="1900" y="160" width="10" height="10" fill="blue" />
<rect x="1910" y="160" width="10" height="10" fill="blue" />
<rect x="1990" y="160" width="10" height="10" fill="blue" />
<rect x="2000" y="160" width="10" height="10" fill="blue" />
<rect x="2010" y="160" width="10" height="10" fill="blue" />
<rect x="2090" y="160" width="10" height="10" fill="blue" />
<rect x="2100" y="160" width="10" height="10" fill="blue" />
<rect x="2110" y="160" width="10" height="10" fill="blue" />
</svg>