<?xml version="1.0" encoding="UTF-8" standalone="no"?>
<!-- Created with Inkscape (http://www.inkscape.org/) -->

<svg
   xmlns:dc="http://purl.org/dc/elements/1.1/"
   xmlns:cc="http://creativecommons.org/ns#"
   xmlns:rdf="http://www.w3.org/1999/02/22-rdf-syntax-ns#"
   xmlns:svg="http://www.w3.org/2000/svg"
   xmlns="http://www.w3.org/2000/svg"
   xmlns:sodipodi="http://sodipodi.sourceforge.net/DTD/sodipodi-0.dtd"
   xmlns:inkscape="http://www.inkscape.org/namespaces/inkscape"
   id="svg2950"
   version="1.1"
   inkscape:version="0.47pre4 r22446"
   width="344.83051"
   height="152.0347"
   sodipodi:docname="walking_stick.jpg">
  <metadata
     id="metadata2956">
    <rdf:RDF>
      <cc:Work
         rdf:about="">
        <dc:format>image/svg+xml</dc:format>
        <dc:type
           rdf:resource="http://purl.org/dc/dcmitype/StillImage" />
        <dc:title></dc:title>
      </cc:Work>
    </rdf:RDF>
  </metadata>
  <defs
     id="defs2954">
    <inkscape:perspective
       sodipodi:type="inkscape:persp3d"
       inkscape:vp_x="0 : 0.5 : 1"
       inkscape:vp_y="0 : 1000 : 0"
       inkscape:vp_z="1 : 0.5 : 1"
       inkscape:persp3d-origin="0.5 : 0.33333333 : 1"
       id="perspective2958" />
  </defs>
  <sodipodi:namedview
     pagecolor="#ffffff"
     bordercolor="#666666"
     borderopacity="1"
     objecttolerance="10"
     gridtolerance="10"
     guidetolerance="10"
     inkscape:pageopacity="0"
     inkscape:pageshadow="2"
     inkscape:window-width="1221"
     inkscape:window-height="975"
     id="namedview2952"
     showgrid="false"
     inkscape:zoom="0.99331667"
     inkscape:cx="194.83922"
     inkscape:cy="-153.1171"
     inkscape:window-x="173"
     inkscape:window-y="54"
     inkscape:window-maximized="0"
     inkscape:current-layer="svg2950" />
  <path
     style="fill:none;stroke:#7a2b2b;stroke-width:0.50336415;stroke-opacity:1"
     d=""
     id="path3762" />
  <path
     style="fill:none;stroke:#7a2b2b;stroke-width:0.50336415;stroke-opacity:1"
     d=""
     id="path3764" />
  <path
     style="fill:none;stroke:#7a2b2b;stroke-width:0.50336415;stroke-opacity:1"
     d=""
     id="path3766" />
  <path
     style="fill:none;stroke:#7a2b2b;stroke-width:0.50336415;stroke-opacity:1"
     d=""
     id="path3768" />
  <path
     style="fill:none;stroke:#7a2b2b;stroke-width:0.50336415;stroke-opacity:1"
     d=""
     id="path3770" />
  <path
     style="fill:none;stroke:#7a2b2b;stroke-width:0.50336415;stroke-opacity:1"
     d=""
     id="path3772" />
  <path
     style="fill:none;stroke:#7a2b2b;stroke-width:0.50336415;stroke-opacity:1"
     d=""
     id="path3774" />
  <path
     style="fill:none;stroke:#7a2b2b;stroke-width:0.50336415;stroke-opacity:1"
     d=""
     id="path3782" />
  <path
     style="fill:none;stroke:#7a2b2b;stroke-width:0.50336415;stroke-opacity:1"
     d=""
     id="path3784" />
  <path
     style="fill:none;stroke:#7a2b2b;stroke-width:0.50336415;stroke-opacity:1"
     d=""
     id="path3790" />
  <path
     style="fill:none;stroke:#7a2b2b;stroke-width:0.50336415;stroke-opacity:1"
     d=""
     id="path3792" />
  <path
     style="fill:none;stroke:#7a2b2b;stroke-width:0.50336415;stroke-opacity:1"
     d=""
     id="path3794" />
  <path
     style="fill:none;stroke:#7a2b2b;stroke-width:0.50336415;stroke-opacity:1"
     d=""
     id="path3796" />
  <path
     style="fill:none;stroke:#7a2b2b;stroke-width:0.50336415;stroke-opacity:1"
     d=""
     id="path3798" />
  <path
     style="fill:none;stroke:#7a2b2b;stroke-width:0.50336415;stroke-opacity:1"
     d=""
     id="path3800" />
  <path
     style="fill:none;stroke:#7a2b2b;stroke-width:0.50336415;stroke-opacity:1"
     d=""
     id="path3812" />
  <path
     style="fill:none;stroke:#7a2b2b;stroke-width:0.50336415;stroke-opacity:1"
     d=""
     id="path3814" />
  <path
     style="fill:none;stroke:#7a2b2b;stroke-width:0.50336415;stroke-opacity:1"
     d=""
     id="path3820" />
  <path
     style="fill:none;stroke:#7a2b2b;stroke-width:0.50336415;stroke-opacity:1"
     d=""
     id="path3822" />
  <path
     style="fill:none;stroke:#7a2b2b;stroke-width:0.50336415;stroke-opacity:1"
     d=""
     id="path3828" />
  <path
     style="fill:none;stroke:#7a2b2b;stroke-width:0.50336415;stroke-opacity:1"
     d=""
     id="path3832" />
  <path
     style="fill:none;stroke:#7a2b2b;stroke-width:0.50336415;stroke-opacity:1"
     d=""
     id="path3834" />
  <path
     style="fill:none;stroke:#7a2b2b;stroke-width:0.50336415;stroke-opacity:1"
     d=""
     id="path3844" />
  <path
     style="fill:none;stroke:#7a2b2b;stroke-width:0.50336415;stroke-opacity:1"
     d=""
     id="path3846" />
  <path
     style="fill:none;stroke:#7a2b2b;stroke-width:0.50336415;stroke-opacity:1"
     d=""
     id="path3848" />
  <path
     style="fill:none;stroke:#7a2b2b;stroke-width:0.50336415;stroke-opacity:1"
     d=""
     id="path3850" />
  <path
     style="fill:none;stroke:#7a2b2b;stroke-width:0.50336415;stroke-opacity:1"
     d=""
     id="path3852" />
  <path
     style="fill:none;stroke:#7a2b2b;stroke-width:0.50336415;stroke-opacity:1"
     d=""
     id="path3856" />
  <path
     style="fill:none;stroke:#7a2b2b;stroke-width:0.50336415;stroke-opacity:1"
     d=""
     id="path3862" />
  <path
     style="fill:none;stroke:#7a2b2b;stroke-width:0.50336415;stroke-opacity:1"
     d=""
     id="path3864" />
  <path
     style="fill:none;stroke:#7a2b2b;stroke-width:0.50336415;stroke-opacity:1"
     d=""
     id="path3868" />
  <path
     style="fill:none;stroke:#7a2b2b;stroke-width:0.50336415;stroke-opacity:1"
     d=""
     id="path3870" />
  <path
     style="fill:none;stroke:#7a2b2b;stroke-width:0.50336415;stroke-opacity:1"
     d=""
     id="path3872" />
  <path
     style="fill:none;stroke:#7a2b2b;stroke-width:0.50336415;stroke-opacity:1"
     d=""
     id="path3874" />
  <path
     style="fill:none;stroke:#7a2b2b;stroke-width:0.50336415;stroke-opacity:1"
     d=""
     id="path3880" />
  <path
     style="fill:none;stroke:#7a2b2b;stroke-width:0.50336415;stroke-opacity:1"
     d=""
     id="path3882" />
  <path
     style="fill:none;stroke:#7a2b2b;stroke-width:0.50336415;stroke-opacity:1"
     d=""
     id="path3894" />
  <path
     style="fill:none;stroke:#7a2b2b;stroke-width:0.50336415;stroke-opacity:1"
     d=""
     id="path3900" />
  <path
     style="fill:none;stroke:#7a2b2b;stroke-width:0.50336415;stroke-opacity:1"
     d=""
     id="path3902" />
  <path
     style="fill:none;stroke:#7a2b2b;stroke-width:0.50336415;stroke-opacity:1"
     d=""
     id="path3910" />
  <path
     style="fill:none;stroke:#7a2b2b;stroke-width:0.50336415;stroke-opacity:1"
     d=""
     id="path3912" />
  <path
     style="fill:none;stroke:#7a2b2b;stroke-width:0.50336415;stroke-opacity:1"
     d=""
     id="path3914" />
  <path
     style="fill:none;stroke:#7a2b2b;stroke-width:0.50336415;stroke-opacity:1"
     d=""
     id="path3922" />
  <path
     style="fill:none;stroke:#7a2b2b;stroke-width:0.50336415;stroke-opacity:1"
     d=""
     id="path3924" />
  <path
     style="fill:none;stroke:#7a2b2b;stroke-width:0.50336415;stroke-opacity:1"
     d=""
     id="path3926" />
  <path
     style="fill:none;stroke:#7a2b2b;stroke-width:0.50336415;stroke-opacity:1"
     d=""
     id="path3928" />
  <path
     style="fill:none;stroke:#7a2b2b;stroke-width:0.50336415;stroke-opacity:1"
     d=""
     id="path3930" />
  <path
     style="fill:none;stroke:#7a2b2b;stroke-width:0.50336415;stroke-opacity:1"
     d=""
     id="path3936" />
  <path
     style="fill:none;stroke:#7a2b2b;stroke-width:0.50336415;stroke-opacity:1"
     d=""
     id="path3938" />
  <path
     style="fill:none;stroke:#7a2b2b;stroke-width:0.50336415;stroke-opacity:1"
     d=""
     id="path3940" />
  <path
     style="fill:none;stroke:#7a2b2b;stroke-width:0.50336415;stroke-opacity:1"
     d=""
     id="path3950" />
  <path
     style="fill:none;stroke:#7a2b2b;stroke-width:0.50336415;stroke-opacity:1"
     d=""
     id="path3952" />
  <path
     style="fill:none;stroke:#7a2b2b;stroke-width:0.50336415;stroke-opacity:1"
     d=""
     id="path3954" />
  <path
     style="fill:none;stroke:#7a2b2b;stroke-width:0.50336415;stroke-opacity:1"
     d=""
     id="path3958" />
  <path
     style="fill:none;stroke:#7a2b2b;stroke-width:0.50336415;stroke-opacity:1"
     d=""
     id="path3964" />
  <path
     style="fill:none;stroke:#7a2b2b;stroke-width:0.50336415;stroke-opacity:1"
     d=""
     id="path3966" />
  <path
     style="fill:none;stroke:#7a2b2b;stroke-width:0.50336415;stroke-opacity:1"
     d=""
     id="path3968" />
  <path
     style="fill:none;stroke:#7a2b2b;stroke-width:0.50336415;stroke-opacity:1"
     d=""
     id="path3974" />
  <path
     style="fill:none;stroke:#7a2b2b;stroke-width:0.50336415;stroke-opacity:1"
     d=""
     id="path3992" />
  <path
     style="fill:none;stroke:#7a2b2b;stroke-width:0.50336415;stroke-opacity:1"
     d=""
     id="path3994" />
  <path
     style="fill:none;stroke:#7a2b2b;stroke-width:0.50336415;stroke-opacity:1"
     d=""
     id="path3996" />
  <path
     style="fill:none;stroke:#7a2b2b;stroke-width:0.50336415;stroke-opacity:1"
     d=""
     id="path3998" />
  <g
     id="g4071"
     transform="translate(-47.550848,-102.24496)">
    <path
       sodipodi:nodetypes="cssc"
       id="path2964"
       d="m 158.38983,154.47458 c 0,0 39.63995,-12.32192 80.89235,-24.33062 32.0916,-9.34197 65.2584,-18.39501 80.85712,-21.95098 40.65158,-9.267164 71.38613,-3.90485 71.38613,-3.90485"
       style="fill:none;stroke:#000000;stroke-width:1px;stroke-linecap:butt;stroke-linejoin:miter;stroke-opacity:1" />
    <path
       sodipodi:nodetypes="cccccccccccccccccccccccccccccccccccccccccccccccccccccccccccssc"
       d="m 181.96772,152.2631 -6.84908,14.31317 -14.94915,6.05085 -18.15254,8.18644 -64.779662,45.20339 -13.169491,14.23729 -14.593221,9.61017 8.542373,3.91525 L 87.915254,223.16949 147,184.01695 l 25.62712,-12.81356 10.67796,-4.62712 4.98306,-10.67797 -6.32042,-3.6352 z m -22.26582,1.75129 -43.31207,17.90086 -68.338982,44.1356 6.406779,0.35593 58.728813,-35.94915 43.0678,-17.08475 6.76271,1.0678 m 77.53215,-32.55515 -28.22067,-20.25884 -8.73521,-6.27076 -3.91525,3.20339 0.25168,34.25585 5.48642,-1.63222 -2.17878,-27.64058 29.8983,19.93221 7.41351,-1.58905 z m 48.46785,-15.4957 c 1.77966,-0.71186 13.52542,-6.40678 13.52542,-6.40678 l -4.62712,-4.27119 -16.72881,12.81356 7.83051,-2.13559 z m -22.56068,15.76527 63.49288,46.52287 -34.16949,17.44067 -3.55932,8.18644 -1.77966,7.83051 L 284.0339,210 l 0,5.69492 9.9661,-1.0678 3.20339,-11.0339 40.57627,-24.91525 -3.20339,-8.18644 -46.27118,-31.67797 -2.84746,-11.74576 -19.00136,5.0873 z m -19.08339,5.94659 -7.83051,43.42373 -19.57627,25.98305 -4.98305,33.45763 5.33898,3.55932 2.49153,-32.74576 23.84746,-26.33898 9.61017,-49.83051 -8.89831,2.49152 z m -85.06779,26.33899 c 0,0 73.10582,-23.03599 110.72653,-33.48618 13.92634,-3.86843 48.47437,-15.78557 68.28435,-20.04689 C 374.31575,103.80903 391.88136,105 391.88136,105"
       style="fill:none;stroke:#7a2b2b;stroke-width:1px;stroke-linecap:butt;stroke-linejoin:miter;stroke-opacity:1"
       id="path2978" />
    <path
       id="path3756"
       d="m 51.930665,215.38618 c -0.602723,-0.24488 8.509519,-6.38096 32.053487,-21.58446 l 32.895608,-21.24233 21.30311,-8.79457 c 21.75451,-8.98093 21.21612,-8.79465 56.139,-19.42394 2.54872,-0.77574 4.70366,-1.20155 4.78876,-0.94626 0.19003,0.57011 6.79249,-1.40959 7.02473,-2.10632 0.2906,-0.8718 25.20799,-8.058 25.9126,-7.47323 0.4308,0.35754 1.90924,0.25551 4.80271,-0.33145 4.93206,-1.0005 5.16807,-1.11112 4.38471,-2.05501 -0.32975,-0.39732 -0.51064,-0.78989 -0.40197,-0.87239 0.10866,-0.0825 9.37138,-2.70108 20.58382,-5.81908 11.21244,-3.118 22.42487,-6.23869 24.91652,-6.93486 9.88698,-2.76244 14.01761,-3.85216 24.41317,-6.44055 17.89042,-4.45454 28.0211,-6.16365 43.28931,-7.30322 7.5259,-0.56171 21.84331,-0.57302 27.68503,-0.0219 l 3.77523,0.35619 -4.02691,0.082 c -11.15762,0.2272 -35.22087,4.12475 -50.37959,8.16004 -6.03908,1.60761 -24.2801,7.03576 -37.20201,11.07053 -4.43168,1.38376 -12.67726,3.74004 -18.32353,5.23617 -5.64627,1.49613 -10.40789,2.94993 -10.5814,3.23066 -0.1735,0.28074 -3.48181,1.33324 -7.3518,2.33889 -3.86999,1.00566 -8.62195,2.36154 -10.5599,3.01307 -1.93795,0.65154 -11.90456,3.71707 -22.14802,6.8123 -10.24346,3.09522 -22.52835,6.84024 -27.29975,8.32227 l -8.67527,2.69458 -3.55693,-2.05071 c -1.9563,-1.1279 -3.63209,-1.96786 -3.72398,-1.8666 -0.0919,0.10127 -0.98926,1.82635 -1.99417,3.83352 -1.0049,2.00716 -1.91985,3.64939 -2.0332,3.64939 -0.11335,0 -3.55015,1.03826 -7.63732,2.30725 -7.06394,2.19321 -7.59199,2.28414 -10.68365,1.83959 l -3.25241,-0.46766 -21.72964,8.63131 -21.72963,8.6313 -29.345061,17.96918 c -16.139781,9.88305 -29.602563,17.95325 -29.917293,17.93379 -0.31473,-0.0194 -0.951193,-0.18934 -1.414361,-0.37752 l 0,0 z"
       style="fill:none;stroke:#7a2b2b;stroke-width:0.50336415;stroke-opacity:1" />
    <path
       id="path3758"
       d="m 56.044656,213.01691 c 0,-0.30605 10.885185,-7.47232 40.01745,-26.34551 20.495634,-13.27799 20.707344,-13.39924 30.705214,-17.58437 14.94473,-6.2559 29.01881,-11.86404 34.98381,-13.9401 11.01331,-3.83308 34.6142,-10.8859 37.78583,-11.29181 1.81796,-0.23267 4.93628,-1.13884 6.92961,-2.01371 6.57028,-2.88372 23.33583,-7.58732 27.04428,-7.58732 2.59227,0 7.27274,-0.9256 8.11942,-1.60569 0.3296,-0.26475 0.48974,-0.76683 0.35585,-1.11573 -0.27221,-0.70938 -0.41193,-0.66553 23.42493,-7.3513 59.34745,-16.64578 73.36254,-19.42791 99.95088,-19.84121 6.6444,-0.10328 10.94817,-0.0917 9.56392,0.0259 -4.18625,0.35535 -16.68009,2.18334 -24.16148,3.5351 -13.6855,2.47272 -24.94195,5.42871 -49.58137,13.02025 -4.84488,1.49274 -14.35847,4.29061 -21.1413,6.2175 -6.78283,1.92689 -13.57824,3.96218 -15.10092,4.52286 -1.52268,0.56068 -7.5253,2.39725 -13.33915,4.08127 -5.81386,1.68401 -22.23611,6.64574 -36.4939,11.02606 l -25.92326,7.96422 -3.67418,-1.99319 c -2.0208,-1.09625 -3.81317,-1.85419 -3.98306,-1.68431 -0.16988,0.16988 -1.23466,1.92929 -2.36619,3.90978 l -2.05731,3.60091 -4.02691,1.20025 c -9.35638,2.78873 -11.10438,3.12236 -14.17329,2.70511 l -2.94109,-0.39987 -21.89634,8.68967 -21.89634,8.68966 -16.359336,10.02861 C 74.008629,202.8449 56.700083,213.2823 56.338526,213.2823 c -0.161628,0 -0.29387,-0.1194 -0.29387,-0.26535 z"
       style="fill:none;stroke:#7a2b2b;stroke-width:0.50336415;stroke-opacity:1" />
    <path
       id="path3760"
       d="m 80.98635,197.23154 c 0.263008,-0.24554 5.461501,-3.67575 11.552207,-7.62268 24.127103,-15.63499 25.540823,-16.40798 43.289313,-23.6696 22.68543,-9.28151 41.36675,-15.69216 59.39697,-20.38259 4.70646,-1.22434 11.38862,-3.22452 14.84925,-4.44484 8.38657,-2.95735 18.40329,-5.63215 23.65811,-6.31752 6.3815,-0.83232 8.55719,-1.49823 8.55719,-2.61909 0,-0.51772 0.0985,-0.94131 0.21892,-0.94131 0.1204,0 4.4808,-1.23508 9.68976,-2.74461 5.20896,-1.50953 17.8367,-5.02883 28.06164,-7.82065 42.8801,-11.70803 58.12167,-14.79567 75.74588,-15.34463 l 7.84624,-0.2444 -8.30647,1.45468 c -11.88,2.0805 -23.3575,4.74122 -34.95961,8.10435 -25.6576,7.43741 -86.36149,25.67483 -121.33399,36.45268 -4.98331,1.53575 -9.32524,2.79266 -9.64874,2.79312 -0.32351,4.7e-4 -2.24888,-0.79951 -4.2786,-1.77771 -4.21858,-2.0331 -3.58983,-2.31225 -6.94307,3.08254 l -1.90558,3.06576 -5.97807,1.70421 c -4.63792,1.32217 -7.05007,1.72626 -10.76003,1.80255 l -4.78196,0.0983 -21.49826,8.5434 -21.49826,8.54339 -15.313286,9.36553 c -13.653788,8.35059 -17.236129,10.39095 -15.659554,8.91909 z"
       style="fill:none;stroke:#7a2b2b;stroke-width:0.50336415;stroke-opacity:1" />
    <path
       id="path3776"
       d="m 257.43226,133.06494 c 0.49711,-0.43238 4.46468,-0.6899 4.20706,-0.27306 -0.15483,0.25052 -1.21194,0.45548 -2.34915,0.45548 -1.1372,0 -1.97326,-0.0821 -1.85791,-0.18242 z"
       style="fill:none;stroke:#7a2b2b;stroke-width:0.50336415;stroke-opacity:1" />
    <path
       id="path3778"
       d="m 186.17881,151.8544 c -1.92997,-0.82096 -3.96859,-1.5072 -4.53028,-1.52497 -0.56169,-0.0178 4.75486,-1.69334 11.81454,-3.72348 7.05968,-2.03015 16.02771,-4.72073 19.92896,-5.97907 8.60729,-2.77626 15.33063,-4.48351 22.35363,-5.67621 4.35687,-0.73992 5.50638,-1.12679 6.54373,-2.20228 1.05945,-1.09841 4.60097,-2.23285 22.39971,-7.17525 46.06552,-12.7916 65.08629,-17.27944 80.39258,-18.96816 9.55661,-1.05437 9.6087,-0.53382 0.14568,1.45577 -4.9833,1.04773 -12.91129,2.9332 -17.61774,4.18994 -8.29657,2.21538 -65.38468,18.97207 -71.47771,20.98038 -4.19382,1.3823 -52.51978,16.0177 -65.68903,19.89375 -0.41527,0.12223 -2.33411,-0.44946 -4.26407,-1.27042 l 0,0 z"
       style="fill:none;stroke:#7a2b2b;stroke-width:0.50336415;stroke-opacity:1" />
    <path
       id="path3780"
       d="m 186.67981,151.57168 c -3.92565,-1.43701 -6.03298,-0.61774 26.66614,-10.36702 5.53701,-1.65086 14.13848,-3.90075 19.11439,-4.99976 4.9759,-1.09901 9.40121,-2.31866 9.83402,-2.71035 0.43281,-0.39169 1.57817,-1.04276 2.54525,-1.44683 3.56086,-1.48783 44.10571,-12.7305 62.63544,-17.36818 15.85554,-3.96837 35.48477,-7.77731 36.23155,-7.03052 0.12055,0.12055 -3.45195,1.08406 -7.9389,2.14113 -12.80137,3.01584 -46.47613,12.85367 -115.52013,33.74835 -16.0599,4.86019 -29.73232,8.82074 -30.38314,8.80123 -0.65083,-0.0195 -2.0839,-0.36513 -3.18462,-0.76805 z"
       style="fill:none;stroke:#7a2b2b;stroke-width:0.50336415;stroke-opacity:1" />
    <path
       id="path3786"
       d="m 187.48002,151.29093 c -0.93746,-0.26957 -1.50374,-0.67395 -1.25841,-0.89863 1.29244,-1.1837 28.559,-9.28152 44.88259,-13.32957 5.06058,-1.25496 10.75612,-2.96426 12.65675,-3.79845 9.14826,-4.0152 86.16747,-24.29252 87.4393,-23.02068 0.13142,0.13141 -0.96249,0.51994 -2.43089,0.86339 -9.76583,2.2842 -102.63457,29.84324 -104.45753,30.99805 -0.61317,0.38843 -1.63641,0.70624 -2.27386,0.70624 -0.63745,0 -3.87324,0.80551 -7.19065,1.79003 -11.27395,3.3458 -25.04804,7.27069 -25.356,7.22513 -0.16876,-0.025 -1.07385,-0.26595 -2.0113,-0.53551 z"
       style="fill:none;stroke:#7a2b2b;stroke-width:0.50336415;stroke-opacity:1" />
    <path
       id="path3788"
       d="m 188.20829,150.91072 c -0.76143,-0.29431 -0.15236,-0.6718 2.7685,-1.71585 5.75165,-2.05591 19.2238,-6.00165 34.60495,-10.13514 7.66653,-2.06028 16.54406,-4.6411 19.72784,-5.73514 12.85243,-4.4165 59.01611,-17.06688 60.48886,-16.57596 0.2555,0.0852 -4.47256,1.59185 -10.5068,3.3482 -20.01753,5.82636 -56.15893,16.69469 -64.07626,19.26882 -4.29118,1.39517 -9.54876,2.96216 -11.68352,3.4822 -2.13476,0.52004 -9.49646,2.54771 -16.35934,4.50594 -15.26816,4.35656 -13.79895,4.00734 -14.96423,3.55693 z"
       style="fill:none;stroke:#7a2b2b;stroke-width:0.50336415;stroke-opacity:1" />
    <path
       id="path3802"
       d="m 114.18322,176.72777 c 3.17068,-2.468 26.53071,-12.52814 42.78595,-18.42604 6.92593,-2.51294 22.99275,-7.93999 23.50639,-7.93999 0.28223,0 -2.42537,4.59854 -4.36817,7.41884 -0.0455,0.066 -2.65334,0.79449 -5.79523,1.6188 -3.4441,0.9036 -7.72725,1.62486 -10.78617,1.81633 l -5.07364,0.31758 -20.21138,8.00506 c -11.11625,4.40278 -20.40332,7.99785 -20.63793,7.98905 -0.2346,-0.009 0.0265,-0.36864 0.58018,-0.79963 z"
       style="fill:none;stroke:#7a2b2b;stroke-width:0.50336415;stroke-opacity:1" />
    <path
       id="path3804"
       d="m 129.03246,170.18416 c 7.11461,-3.31043 25.15712,-10.31048 37.56602,-14.57471 6.82599,-2.34569 12.47568,-4.20011 12.55487,-4.12093 0.0792,0.0792 -0.63267,1.4138 -1.58191,2.96579 -1.596,2.60944 -1.94372,2.88253 -4.62034,3.62872 -4.97516,1.38698 -9.95779,2.30403 -14.30775,2.63333 -3.7701,0.2854 -5.59597,0.86827 -18.1805,5.80365 -14.09231,5.52671 -18.40333,6.90866 -11.43039,3.66415 z"
       style="fill:none;stroke:#7a2b2b;stroke-width:0.50336415;stroke-opacity:1" />
    <path
       id="path3806"
       d="m 157.9759,159.41653 c 3.89722,-1.59954 19.88288,-7.03616 19.88288,-6.76204 0,0.13424 -0.56159,1.13369 -1.24797,2.22099 -0.8957,1.41888 -1.78374,2.12799 -3.14602,2.51214 -3.36947,0.95015 -11.3715,2.44889 -14.73385,2.75957 l -3.27186,0.30232 2.51682,-1.03298 z"
       style="fill:none;stroke:#7a2b2b;stroke-width:0.50336415;stroke-opacity:1" />
    <path
       id="path3808"
       d="m 161.79509,158.70718 c 0.29345,-0.29344 13.56354,-4.82189 14.13,-4.82189 0.71957,0 -0.49692,1.9319 -1.58224,2.51275 -1.79503,0.96067 -13.32026,3.08164 -12.54776,2.30914 z"
       style="fill:none;stroke:#7a2b2b;stroke-width:0.50336415;stroke-opacity:1" />
    <path
       id="path3810"
       d="m 171.77806,155.86357 c 1.50048,-0.5326 2.83771,-0.85879 2.97163,-0.72488 0.38187,0.38187 -3.27231,1.77095 -4.55105,1.73001 -0.71009,-0.0227 -0.107,-0.40654 1.57942,-1.00513 z"
       style="fill:none;stroke:#7a2b2b;stroke-width:0.50336415;stroke-opacity:1" />
    <path
       id="path3816"
       d="m 204.2854,130.22718 c -0.20137,-3.35154 -0.25288,-6.20697 -0.11445,-6.34539 0.13842,-0.13843 0.41644,2.49049 0.61781,5.84202 0.20138,3.35154 0.25288,6.20697 0.11445,6.34539 -0.13842,0.13843 -0.41644,-2.49048 -0.61781,-5.84202 z"
       style="fill:none;stroke:#7a2b2b;stroke-width:0.50336415;stroke-opacity:1" />
    <path
       id="path3818"
       d="m 204.29799,130.6512 c -0.20854,-3.22741 -0.27158,-6.17209 -0.14008,-6.54373 0.1315,-0.37164 0.40972,1.96491 0.61826,5.19232 0.20854,3.22742 0.27158,6.1721 0.14008,6.54373 -0.1315,0.37164 -0.40972,-1.9649 -0.61826,-5.19232 l 0,0 z"
       style="fill:none;stroke:#7a2b2b;stroke-width:0.50336415;stroke-opacity:1" />
    <path
       id="path3824"
       d="m 200.51017,124.81876 0,-16.04692 1.5408,-1.13916 c 1.85517,-1.37159 -0.56675,-2.80913 19.32259,11.46903 l 15.27585,10.96624 -2.42468,0.77538 -2.42468,0.77539 -14.38909,-9.58598 c -7.914,-5.27229 -14.52157,-9.4535 -14.6835,-9.29157 -0.26185,0.26185 0.84735,16.67624 1.62875,24.10292 0.32452,3.08436 0.55164,2.79515 -2.96516,3.77591 -0.82565,0.23026 -0.88088,-0.76046 -0.88088,-15.80124 z"
       style="fill:none;stroke:#7a2b2b;stroke-width:0.50336415;stroke-opacity:1" />
    <path
       id="path3826"
       d="m 201.34911,139.45552 c -0.18457,-0.18457 -0.33558,-7.05813 -0.33558,-15.27459 0,-13.83341 0.0681,-15.00067 0.92052,-15.77208 1.67874,-1.51923 0.52706,-2.18522 18.459,10.67452 6.36756,4.56643 12.33956,8.87535 13.27112,9.57536 l 1.69374,1.27276 -1.69374,0.57209 c -1.65697,0.55967 -1.87407,0.45147 -9.99925,-4.98339 -9.56548,-6.39827 -20.61572,-13.41412 -21.12775,-13.41412 -0.43763,0 -0.18597,5.61124 0.78816,17.57372 0.61659,7.57184 0.63533,9.34395 0.10235,9.68205 -0.79642,0.50522 -1.62949,0.54276 -2.07857,0.0937 l 0,0 z"
       style="fill:none;stroke:#7a2b2b;stroke-width:0.50336415;stroke-opacity:1" />
    <path
       id="path3830"
       d="m 201.78584,138.27731 c -0.17406,-0.6935 -0.24914,-7.42429 -0.16686,-14.95732 0.18466,-16.90681 -0.0298,-16.4237 5.64548,-12.71886 6.33801,4.1375 26.46774,18.74191 26.46774,19.20273 0,1.18396 -2.54818,-0.13231 -11.54198,-5.96209 -11.65476,-7.5546 -19.22287,-12.23906 -19.77315,-12.23906 -0.67099,0 -0.17081,14.89678 0.81462,24.26137 0.11052,1.05023 -0.0929,2.25667 -0.46674,2.7679 -0.61926,0.84689 -0.68337,0.82367 -0.97911,-0.35467 z"
       style="fill:none;stroke:#7a2b2b;stroke-width:0.50336415;stroke-opacity:1" />
    <path
       id="path3836"
       d="m 202.18949,133.75073 c 0,-2.07638 0.0889,-2.92581 0.19745,-1.88762 0.1086,1.03819 0.1086,2.73704 0,3.77523 -0.10859,1.03819 -0.19745,0.18876 -0.19745,-1.88761 z"
       style="fill:none;stroke:#7a2b2b;stroke-width:0.50336415;stroke-opacity:1" />
    <path
       id="path3838"
       d="m 205.82889,136.09647 c -0.15879,-1.70543 -0.3649,-3.89359 -0.45802,-4.86256 -0.0931,-0.96898 -0.20556,-0.19506 -0.24987,1.71982 -0.0443,1.91489 -0.24483,3.31733 -0.44562,3.11655 -0.20078,-0.20079 -0.37364,-4.96007 -0.38414,-10.57618 l -0.0191,-10.21112 12.4767,8.31601 c 6.86218,4.5738 12.3015,8.47595 12.08736,8.67143 -0.32679,0.29833 -4.05231,1.43676 -21.36957,6.53006 -1.34135,0.39452 -1.35067,0.37913 -1.63775,-2.70401 z m -0.93657,-11.53214 c -0.11998,-0.62291 -0.21814,-0.11326 -0.21814,1.13257 0,1.24583 0.0982,1.75548 0.21814,1.13257 0.11998,-0.62291 0.11998,-1.64222 0,-2.26514 z"
       style="fill:none;stroke:#7a2b2b;stroke-width:0.50336415;stroke-opacity:1" />
    <path
       id="path3840"
       d="m 217.5623,120.22511 c -5.15597,-3.27742 -10.64893,-6.6881 -12.20658,-7.57929 -2.96216,-1.69478 -3.09466,-1.86253 -2.37223,-3.00343 0.36612,-0.57819 0.78619,-0.49305 2.38327,0.48303 2.60754,1.59364 20.87454,14.46408 21.80373,15.36232 1.8251,1.76433 -0.91187,0.26522 -9.60819,-5.26263 z"
       style="fill:none;stroke:#7a2b2b;stroke-width:0.50336415;stroke-opacity:1" />
    <path
       id="path3842"
       d="m 212.84259,116.63635 c -0.1711,-0.27685 -0.0846,-0.50337 0.19227,-0.50337 0.27685,0 0.64335,0.22652 0.81446,0.50337 0.1711,0.27685 0.0846,0.50336 -0.19227,0.50336 -0.27685,0 -0.64336,-0.22651 -0.81446,-0.50336 z"
       style="fill:none;stroke:#7a2b2b;stroke-width:0.50336415;stroke-opacity:1" />
    <path
       id="path3854"
       d="m 286.58544,115.49152 c 0.41527,-0.38923 3.15224,-2.54158 6.08215,-4.78298 l 5.3271,-4.07527 1.55239,1.55239 1.5524,1.55239 -6.12445,2.90086 c -6.40293,3.03277 -9.82217,4.19537 -8.38959,2.85261 z"
       style="fill:none;stroke:#7a2b2b;stroke-width:0.50336415;stroke-opacity:1" />
    <path
       id="path3858"
       d="m 289.60562,113.94928 c 0,-0.0936 1.8277,-1.58698 4.06156,-3.31853 3.91504,-3.03471 4.09662,-3.11655 5.03364,-2.26856 0.53465,0.48385 0.97208,1.03878 0.97208,1.23318 0,0.1944 -2.13133,1.29186 -4.73628,2.43881 -4.56021,2.00782 -5.331,2.28471 -5.331,1.9151 z"
       style="fill:none;stroke:#7a2b2b;stroke-width:0.50336415;stroke-opacity:1" />
    <path
       id="path3860"
       d="m 293.12917,111.87857 c 0,-0.12513 1.0397,-0.94284 2.31045,-1.81713 1.58739,-1.09216 2.47295,-1.42714 2.82969,-1.0704 0.35674,0.35674 -0.28232,0.92542 -2.04203,1.81713 -2.5818,1.3083 -3.09811,1.48668 -3.09811,1.0704 z"
       style="fill:none;stroke:#7a2b2b;stroke-width:0.50336415;stroke-opacity:1" />
    <path
       id="path3866"
       d="m 298.66618,108.58252 c 0,-0.27685 0.21314,-0.50336 0.47365,-0.50336 0.26052,0 0.61365,0.22651 0.78476,0.50336 0.1711,0.27685 -0.0421,0.50336 -0.47366,0.50336 -0.43161,0 -0.78475,-0.22651 -0.78475,-0.50336 z"
       style="fill:none;stroke:#7a2b2b;stroke-width:0.50336415;stroke-opacity:1" />
    <path
       id="path3876"
       d="m 296.40104,118.85018 c 1.6611,-0.38676 3.92624,-0.81939 5.03364,-0.96141 1.1074,-0.14202 2.57974,-0.38469 3.27187,-0.53926 0.78523,-0.17536 1.06914,-0.10594 0.75504,0.18463 -0.47928,0.4434 -10.05905,2.17918 -11.42878,2.07081 -0.35858,-0.0284 0.70713,-0.36801 2.36823,-0.75477 z"
       style="fill:none;stroke:#7a2b2b;stroke-width:0.50336415;stroke-opacity:1" />
    <path
       id="path3878"
       d="m 197.2383,147.80633 c 2.49165,-0.81167 10.88949,-3.27241 18.66186,-5.46831 13.62771,-3.85019 27.89875,-8.03822 43.75529,-12.84058 4.15276,-1.25771 7.89024,-2.2697 8.30551,-2.24886 1.03884,0.0521 -0.8323,0.6583 -20.13456,6.52274 -23.1394,7.03024 -24.64149,7.47148 -40.11659,11.78434 -13.97793,3.89561 -18.51387,4.87053 -10.47151,2.25067 z"
       style="fill:none;stroke:#7a2b2b;stroke-width:0.50336415;stroke-opacity:1" />
    <path
       id="path3884"
       d="m 54.427024,251.26655 -3.241575,-1.54811 6.781129,-4.49501 c 6.00702,-3.98187 7.505447,-5.28494 13.126092,-11.4148 l 6.344963,-6.9198 32.718667,-22.80826 32.71867,-22.80825 9.56392,-4.29624 c 5.26016,-2.36293 12.6753,-5.5237 16.47811,-7.02393 l 6.91419,-2.72771 1.5724,-3.5681 1.57241,-3.5681 3.5098,-1.13041 c 1.9304,-0.62173 3.5841,-1.05471 3.67489,-0.96218 0.0908,0.0925 -0.63319,1.91036 -1.60887,4.03963 l -1.77395,3.87138 -4.85053,2.11606 c -2.66778,1.16383 -10.86643,5.12031 -18.21921,8.79218 -13.05162,6.51779 -14.07829,7.14689 -43.28931,26.52627 -26.299802,17.448 -30.344092,20.30136 -33.419881,23.57866 -1.924587,2.05067 -8.411244,8.71592 -14.414794,14.81167 l -10.915546,11.08317 -3.241575,-1.54812 0,0 z"
       style="fill:none;stroke:#7a2b2b;stroke-width:0.50336415;stroke-opacity:1" />
    <path
       id="path3886"
       d="m 183.80477,157.56835 c 0.36337,-0.14541 0.79752,-0.12752 0.96478,0.0397 0.16726,0.16726 -0.13003,0.28623 -0.66066,0.26438 -0.5864,-0.0242 -0.70567,-0.14343 -0.30412,-0.30412 z"
       style="fill:none;stroke:#7a2b2b;stroke-width:0.50336415;stroke-opacity:1" />
    <path
       id="path3888"
       d="m 183.80477,157.56835 c 0.36337,-0.14541 0.79752,-0.12752 0.96478,0.0397 0.16726,0.16726 -0.13003,0.28623 -0.66066,0.26438 -0.5864,-0.0242 -0.70567,-0.14343 -0.30412,-0.30412 z"
       style="fill:none;stroke:#7a2b2b;stroke-width:0.50336415;stroke-opacity:1" />
    <path
       id="path3890"
       d="m 183.80477,157.56835 c 0.36337,-0.14541 0.79752,-0.12752 0.96478,0.0397 0.16726,0.16726 -0.13003,0.28623 -0.66066,0.26438 -0.5864,-0.0242 -0.70567,-0.14343 -0.30412,-0.30412 z"
       style="fill:none;stroke:#7a2b2b;stroke-width:0.50336415;stroke-opacity:1" />
    <path
       id="path3892"
       d="m 183.80477,157.56835 c 0.36337,-0.14541 0.79752,-0.12752 0.96478,0.0397 0.16726,0.16726 -0.13003,0.28623 -0.66066,0.26438 -0.5864,-0.0242 -0.70567,-0.14343 -0.30412,-0.30412 z"
       style="fill:none;stroke:#7a2b2b;stroke-width:0.50336415;stroke-opacity:1" />
    <path
       id="path3896"
       d="m 180.3756,157.69433 c 0,-0.17908 0.44912,-1.20595 0.99805,-2.28193 l 0.99805,-1.95634 2.01798,1.0955 c 1.10989,0.60253 2.01986,1.2385 2.02214,1.41327 0.002,0.17478 -0.986,0.56709 -2.19618,0.87182 -1.21018,0.30473 -2.56926,0.69562 -3.02018,0.86866 -0.45092,0.17303 -0.81986,0.16809 -0.81986,-0.011 z"
       style="fill:none;stroke:#7a2b2b;stroke-width:0.50336415;stroke-opacity:1" />
    <path
       id="path3898"
       d="m 181.72993,155.93665 c 0.37635,-1.43916 0.9432,-1.70077 2.21286,-1.02127 1.21998,0.65291 0.82111,1.26415 -1.14105,1.74854 -1.1901,0.2938 -1.31641,0.20809 -1.07181,-0.72727 z"
       style="fill:none;stroke:#7a2b2b;stroke-width:0.50336415;stroke-opacity:1" />
    <path
       id="path3904"
       d="m 180.24976,158.58557 c 0.34606,-0.13964 0.91235,-0.13964 1.25841,0 0.34606,0.13964 0.0629,0.25389 -0.6292,0.25389 -0.69213,0 -0.97527,-0.11425 -0.62921,-0.25389 z"
       style="fill:none;stroke:#7a2b2b;stroke-width:0.50336415;stroke-opacity:1" />
    <path
       id="path3906"
       d="m 54.572052,250.83068 -2.227651,-1.16513 5.499518,-3.64544 c 4.330832,-2.87077 7.157527,-5.33608 13.301662,-11.6011 l 7.802144,-7.95566 31.963625,-22.28913 31.96362,-22.28913 9.31224,-4.10095 c 5.12173,-2.25553 12.48343,-5.41089 16.35933,-7.01193 3.87591,-1.60103 7.25097,-3.09956 7.50014,-3.33005 0.24917,-0.2305 1.07811,-1.84612 1.84207,-3.59027 1.32021,-3.01409 1.51923,-3.21568 4.01777,-4.06958 1.44582,-0.49412 2.74795,-0.77921 2.89362,-0.63354 0.58719,0.5872 -2.24317,6.068 -3.43973,6.6608 -0.68007,0.33692 -8.37168,4.10671 -17.09246,8.37731 -9.74383,4.77158 -18.76651,9.59777 -23.40643,12.51999 -9.8936,6.23097 -46.09744,30.37897 -51.66927,34.46346 -2.773205,2.03292 -9.287505,8.21392 -17.94938,17.031 -7.477991,7.61198 -13.786881,13.82974 -14.019757,13.81723 -0.232876,-0.0125 -1.425853,-0.54706 -2.651061,-1.18788 l 0,0 z"
       style="fill:none;stroke:#7a2b2b;stroke-width:0.50336415;stroke-opacity:1" />
    <path
       id="path3908"
       d="m 176.85205,167.21794 c 0,-0.72509 2.51777,-5.1263 3.37633,-5.90205 0.53258,-0.4812 1.71085,-1.02341 2.61837,-1.20491 l 1.65004,-0.33001 -1.04253,1.95996 c -0.57339,1.07798 -1.33154,2.32326 -1.68477,2.76729 -0.67684,0.85081 -4.91744,3.18756 -4.91744,2.70972 z"
       style="fill:none;stroke:#7a2b2b;stroke-width:0.50336415;stroke-opacity:1" />
    <path
       id="path3916"
       d="m 178.36214,165.56665 c 0,-0.90217 3.04284,-4.63426 3.77839,-4.63426 0.95333,0 0.94347,0.27541 -0.0714,1.99341 -0.8413,1.4242 -3.70701,3.46572 -3.70701,2.64085 z"
       style="fill:none;stroke:#7a2b2b;stroke-width:0.50336415;stroke-opacity:1" />
    <path
       id="path3918"
       d="m 178.99135,161.08877 c 0.48449,-0.12661 1.27729,-0.12661 1.76177,0 0.48449,0.12661 0.0881,0.2302 -0.88088,0.2302 -0.96898,0 -1.36538,-0.10359 -0.88089,-0.2302 z"
       style="fill:none;stroke:#7a2b2b;stroke-width:0.50336415;stroke-opacity:1" />
    <path
       id="path3920"
       d="m 100.84407,212.11248 c 0,-0.13583 9.57021,-6.91629 21.26713,-15.0677 20.89949,-14.56454 21.40993,-14.88296 29.52746,-18.41947 4.54317,-1.9793 8.50716,-3.59307 8.80887,-3.58616 0.3017,0.007 -1.60333,1.16582 -4.23341,2.57537 -12.01004,6.43655 -18.35547,10.321 -35.85802,21.95098 -19.32614,12.8417 -19.51203,12.96124 -19.51203,12.54698 z"
       style="fill:none;stroke:#7a2b2b;stroke-width:0.50336415;stroke-opacity:1" />
    <path
       id="path3932"
       d="m 146.81501,178.21754 c 0.28028,-0.28027 5.27537,-2.18422 5.7304,-2.18422 0.0798,0 0.14516,0.22651 0.14516,0.50336 0,0.27685 -0.43685,0.50336 -0.97077,0.50336 -0.53393,0 -1.2701,0.29025 -1.63593,0.645 -0.36584,0.35475 -1.32647,0.69516 -2.13473,0.75647 -0.80826,0.0613 -1.31862,-0.0395 -1.13413,-0.22397 z"
       style="fill:none;stroke:#7a2b2b;stroke-width:0.50336415;stroke-opacity:1" />
    <path
       id="path3934"
       d="m 54.80933,250.35486 -1.487009,-0.63432 4.758876,-3.23363 c 3.085382,-2.09651 7.856579,-6.25809 13.567748,-11.83422 7.468482,-7.29188 15.326704,-13.87512 15.804845,-13.24054 0.271801,0.36073 -29.888777,29.6215 -30.50995,29.59972 -0.356126,-0.0125 -1.316656,-0.30814 -2.13451,-0.65701 z"
       style="fill:none;stroke:#7a2b2b;stroke-width:0.50336415;stroke-opacity:1" />
    <path
       id="path3942"
       d="m 66.002903,242.11479 c -0.241368,-0.92299 0.805089,-2.14025 6.219589,-7.23475 3.580381,-3.36877 6.625496,-6.00933 6.766922,-5.8679 0.141426,0.14142 -2.37859,2.7193 -5.600036,5.72862 -3.221446,3.00932 -6.135973,6.14924 -6.476728,6.97761 -0.584594,1.42114 -0.635928,1.44351 -0.909747,0.39642 z"
       style="fill:none;stroke:#7a2b2b;stroke-width:0.50336415;stroke-opacity:1" />
    <path
       id="path3944"
       d="m 217.73717,241.89586 c -1.09317,-0.69215 -1.62271,-1.42235 -1.62271,-2.23761 0,-1.86905 4.50569,-31.46352 4.88756,-32.10269 0.18577,-0.31094 4.49618,-6.05618 9.57869,-12.7672 5.08251,-6.71101 9.44008,-12.82689 9.68348,-13.59083 0.2434,-0.76394 2.08345,-10.58244 4.089,-21.81889 l 3.64647,-20.42991 3.24238,-0.86397 c 1.78332,-0.47519 3.37405,-0.73232 3.53496,-0.5714 0.2996,0.29959 -8.22162,45.64649 -8.86166,47.15864 -0.19474,0.4601 -5.63225,6.64151 -12.08335,13.73647 l -11.72926,12.89991 -1.19549,15.63152 c -0.65751,8.59734 -1.27465,15.71069 -1.37142,15.80745 -0.0968,0.0968 -0.90616,-0.2864 -1.79865,-0.85149 l 0,0 z"
       style="fill:none;stroke:#7a2b2b;stroke-width:0.50336415;stroke-opacity:1" />
    <path
       id="path3946"
       d="m 218.24799,241.60955 c -1.61024,-0.57473 -1.62441,-2.06151 -0.11968,-12.55722 0.82673,-5.76661 1.92107,-12.90534 2.43187,-15.86383 l 0.92871,-5.3791 7.81956,-10.47687 c 12.49104,-16.73588 10.96291,-13.26061 14.68956,-33.40702 1.76404,-9.53645 3.47769,-18.96279 3.80812,-20.94743 l 0.60078,-3.60844 2.50541,-0.60104 c 1.37798,-0.33057 2.6436,-0.46286 2.81249,-0.29398 0.16889,0.16889 -0.0876,2.7427 -0.56988,5.71957 -1.36518,8.42594 -7.30309,38.49893 -7.85807,39.79781 -0.48579,1.13693 -6.72673,8.36725 -16.8098,19.47466 -2.76451,3.04536 -5.43247,6.00358 -5.9288,6.57384 -0.75576,0.86834 -1.10457,3.51742 -2.14639,16.30077 -0.68419,8.39516 -1.30809,15.3159 -1.38645,15.37943 -0.0784,0.0635 -0.4282,0.0135 -0.77743,-0.11115 l 0,0 z"
       style="fill:none;stroke:#7a2b2b;stroke-width:0.50336415;stroke-opacity:1" />
    <path
       id="path3948"
       d="m 221.66308,209.38815 c 0.006,-0.48832 3.87738,-6.08976 8.60219,-12.44764 4.72482,-6.3579 9.00255,-12.36733 9.50606,-13.3543 1.55378,-3.04567 2.38265,-6.67649 5.7997,-25.40527 1.85527,-10.16873 3.56988,-18.27363 3.91178,-18.49093 0.3348,-0.21277 0.9866,-0.39033 1.44844,-0.39457 0.46185,-0.004 1.22369,-0.15505 1.69298,-0.33513 0.75166,-0.28844 0.81213,-0.0637 0.50789,1.88761 -0.81316,5.21518 -5.04891,27.52491 -6.6231,34.88383 l -1.71216,8.00395 -2.69268,3.32175 c -5.86411,7.2341 -20.45209,23.17062 -20.4411,22.3307 z"
       style="fill:none;stroke:#7a2b2b;stroke-width:0.50336415;stroke-opacity:1" />
    <path
       id="path3956"
       d="m 227.21116,202.56882 c -0.0125,-0.21697 2.84589,-4.40748 6.35194,-9.31224 3.50605,-4.90477 6.77369,-9.82381 7.26143,-10.93121 0.92979,-2.11107 1.82546,-6.24384 5.97881,-27.58723 1.39026,-7.14432 2.74861,-13.40236 3.01856,-13.90676 0.37241,-0.69587 3.03814,-1.8401 3.03814,-1.30409 0,2.01214 -8.06906,42.31847 -8.76944,43.80481 -1.04302,2.21351 -16.82411,20.19849 -16.87944,19.23672 z"
       style="fill:none;stroke:#7a2b2b;stroke-width:0.50336415;stroke-opacity:1" />
    <path
       id="path3960"
       d="m 233.25063,195.04808 c -0.012,-0.20062 1.68146,-2.84503 3.76322,-5.87647 2.08176,-3.03144 4.09736,-6.26501 4.47912,-7.18571 0.38176,-0.92069 1.30063,-4.73193 2.04193,-8.4694 3.09273,-15.5928 6.37169,-31.03187 6.81518,-32.08947 0.2612,-0.62291 0.78862,-1.13257 1.17204,-1.13257 0.83043,0 0.84085,-0.0691 -2.73414,18.12111 -4.71628,23.99728 -4.69476,23.92004 -7.78429,27.93671 -3.15729,4.10474 -7.72151,9.22395 -7.75306,8.6958 z"
       style="fill:none;stroke:#7a2b2b;stroke-width:0.50336415;stroke-opacity:1" />
    <path
       id="path3962"
       d="m 239.28275,186.98905 c -0.007,-0.20348 0.64956,-1.44931 1.46002,-2.7685 1.18042,-1.9214 1.98216,-4.80181 4.03017,-14.47929 4.55797,-21.53773 5.69592,-26.66071 6.14954,-27.68502 0.706,-1.59421 0.15907,1.62505 -3.16417,18.62447 -3.40337,17.40929 -4.78089,22.33433 -6.96907,24.91653 -0.82112,0.96897 -1.49904,1.59529 -1.50649,1.39181 z"
       style="fill:none;stroke:#7a2b2b;stroke-width:0.50336415;stroke-opacity:1" />
    <path
       id="path3970"
       d="m 286.66492,132.744 c 0,-0.69213 0.11425,-0.97527 0.25389,-0.62921 0.13963,0.34607 0.13963,0.91235 0,1.25841 -0.13964,0.34607 -0.25389,0.0629 -0.25389,-0.6292 z"
       style="fill:none;stroke:#7a2b2b;stroke-width:0.50336415;stroke-opacity:1" />
    <path
       id="path3972"
       d="m 286.66492,132.744 c 0,-0.69213 0.11425,-0.97527 0.25389,-0.62921 0.13963,0.34607 0.13963,0.91235 0,1.25841 -0.13964,0.34607 -0.25389,0.0629 -0.25389,-0.6292 z"
       style="fill:none;stroke:#7a2b2b;stroke-width:0.50336415;stroke-opacity:1" />
    <path
       id="path3976"
       d="m 284.57198,213.07064 c 0,-0.991 0.14998,-1.80183 0.33328,-1.80183 0.18331,0 1.53964,0.38027 3.01408,0.84504 1.47444,0.46478 2.81756,0.70829 2.98471,0.54114 0.16714,-0.16715 0.70343,-2.07639 1.19174,-4.24275 0.48832,-2.16637 1.64432,-5.68645 2.5689,-7.82241 l 1.68105,-3.88356 17.14203,-8.75357 c 9.42812,-4.81447 17.14203,-8.9867 17.14203,-9.27164 0,-0.28494 -13.70409,-10.5401 -30.45353,-22.78924 -16.74944,-12.24914 -30.6177,-22.41739 -30.81836,-22.59612 -0.20065,-0.17873 2.97054,-1.31993 7.0471,-2.53601 4.07656,-1.21608 7.67289,-2.30213 7.99185,-2.41345 0.36855,-0.12863 0.98298,1.59917 1.68574,4.74034 0.6082,2.71851 1.36654,5.34655 1.68521,5.84009 0.31867,0.49354 10.77253,7.87034 23.23079,16.39289 13.85157,9.47569 22.88118,15.97138 23.24289,16.7204 0.32533,0.67367 1.03862,2.36439 1.58509,3.75717 l 0.99359,2.53231 -19.67006,12.06506 c -10.81853,6.63578 -19.92161,12.31661 -20.22906,12.62406 -0.30745,0.30745 -1.21365,2.86167 -2.01379,5.67604 -1.62071,5.70064 -1.17205,5.32164 -6.93757,5.86039 l -3.39771,0.3175 0,-1.80185 0,0 z"
       style="fill:none;stroke:#7a2b2b;stroke-width:0.50336415;stroke-opacity:1" />
    <path
       id="path3978"
       d="m 285.07534,213.12779 0,-1.26005 2.83589,0.74055 c 1.55973,0.40731 3.0101,0.55569 3.22302,0.32974 0.21293,-0.22595 0.88475,-2.22292 1.49293,-4.43773 0.60818,-2.2148 1.78188,-5.66436 2.60822,-7.66569 l 1.50243,-3.63878 10.90562,-5.61559 c 12.11392,-6.23778 23.7414,-12.49261 23.7414,-12.77133 0,-0.42685 -10.18621,-8.13012 -29.95017,-22.64969 -11.62771,-8.54228 -23.37504,-17.17559 -26.10517,-19.18514 l -4.96388,-3.65371 6.41226,-2.04996 c 3.52673,-1.12748 6.71443,-2.04996 7.08377,-2.04996 0.36933,0 0.92086,0.96268 1.22562,2.1393 0.30476,1.17661 0.91081,3.44596 1.34677,5.04299 l 0.79266,2.90369 6.60062,4.68216 c 3.63034,2.57518 13.382,9.40546 21.67036,15.1784 8.28836,5.77294 15.88096,11.22914 16.87246,12.12489 1.55631,1.40604 4.06968,6.4416 3.4785,6.96925 -0.10186,0.0909 -3.80943,2.37481 -8.23903,5.0753 -4.42961,2.70049 -13.29559,8.17209 -19.70218,12.15911 l -11.64835,7.24912 -1.60101,5.0187 c -0.93065,2.91733 -1.95475,5.20465 -2.44585,5.4628 -0.46466,0.24425 -2.26055,0.60555 -3.99086,0.80288 -3.11683,0.35547 -3.14603,0.3471 -3.14603,-0.90125 l 0,0 z"
       style="fill:none;stroke:#7a2b2b;stroke-width:0.50336415;stroke-opacity:1" />
    <path
       id="path3980"
       d="m 295.87719,200.824 c 0.18719,-0.76134 0.63338,-1.83728 0.99154,-2.39098 0.35816,-0.5537 6.62858,-4.11794 13.93427,-7.92052 15.15253,-7.88685 20.6913,-10.98959 20.90499,-11.71068 0.082,-0.27685 -2.84516,-2.79624 -6.50489,-5.59865 -6.0896,-4.66307 -50.70597,-37.65217 -52.90136,-39.11498 -0.82522,-0.54986 -0.15947,-0.86236 5.26994,-2.4737 4.50456,-1.33686 6.31439,-1.68268 6.57757,-1.25684 0.1997,0.32312 0.84692,2.5456 1.43827,4.93884 l 1.07518,4.35135 11.4129,7.96947 c 15.89984,11.10263 32.32866,22.83354 33.7366,24.08943 1.49243,1.33126 3.81652,5.83807 3.26152,6.32464 -0.66591,0.58381 -38.99878,24.17687 -39.28141,24.17687 -0.1405,0 -0.1023,-0.62291 0.0849,-1.38425 l 0,0 z"
       style="fill:none;stroke:#7a2b2b;stroke-width:0.50336415;stroke-opacity:1" />
    <path
       id="path3982"
       d="m 329.78867,176.34067 c -1.56271,-1.41487 -14.96354,-11.51979 -29.77962,-22.45538 -14.81609,-10.93558 -26.78558,-20.03879 -26.59887,-20.22934 0.55549,-0.56692 9.30727,-2.97213 9.9363,-2.73075 0.31878,0.12233 1.10239,2.22625 1.74137,4.67538 1.13202,4.33893 1.22731,4.49881 3.72066,6.24299 37.42646,26.18101 42.95557,30.27752 44.4478,32.93134 1.37191,2.43982 1.40331,2.8707 0.26118,3.58397 -0.73971,0.46196 -1.36075,0.12583 -3.72882,-2.01821 l 0,0 z"
       style="fill:none;stroke:#7a2b2b;stroke-width:0.50336415;stroke-opacity:1" />
    <path
       id="path3984"
       d="m 331.13316,176.72691 c -0.83055,-0.70601 -12.2695,-9.34968 -25.41989,-19.20815 -25.05124,-18.78021 -30.70521,-23.14936 -30.70521,-23.7277 0,-0.53355 6.91834,-2.21091 7.77039,-1.88394 0.41143,0.15788 1.24112,1.98398 1.84375,4.05802 0.70028,2.41009 1.57014,4.22108 2.41036,5.01822 0.72306,0.686 9.60963,7.12091 19.74794,14.2998 21.48855,15.21596 25.15345,18.05144 26.2451,20.30545 1.30204,2.68843 0.49922,3.17133 -1.89244,1.1383 l 0,0 z"
       style="fill:none;stroke:#7a2b2b;stroke-width:0.50336415;stroke-opacity:1" />
    <path
       id="path3986"
       d="M 306.35867,157.29654 C 291.96319,146.42272 279.19012,136.7018 277.97409,135.6945 l -2.21098,-1.83145 2.01345,-0.53262 c 4.78029,-1.26451 4.82173,-1.24589 6.34785,2.85329 0.75587,2.03027 1.7887,4.14967 2.29519,4.70978 0.50649,0.56011 9.41515,7.14978 19.79704,14.64371 10.38188,7.49394 20.29157,14.75755 22.02153,16.14136 2.99209,2.3934 4.99614,4.68652 4.51566,5.16701 -0.12185,0.12185 -11.99967,-8.67522 -26.39516,-19.54904 l 0,0 z"
       style="fill:none;stroke:#7a2b2b;stroke-width:0.50336415;stroke-opacity:1" />
    <path
       id="path3988"
       d="m 281.29714,137.50579 c -1.93114,-1.49606 -3.5815,-2.93111 -3.66746,-3.18899 -0.27281,-0.81843 3.94897,-1.26645 4.65198,-0.49367 0.7041,0.77397 2.95316,5.97628 2.69519,6.23425 -0.0927,0.0927 -1.74856,-1.05552 -3.67971,-2.55159 z"
       style="fill:none;stroke:#7a2b2b;stroke-width:0.50336415;stroke-opacity:1" />
    <path
       id="path3990"
       d="m 280.8928,136.40945 c -1.82615,-1.48087 -2.164,-1.97401 -1.57735,-2.30232 0.41061,-0.22979 1.14281,-0.29203 1.62711,-0.13832 0.91118,0.28919 2.98042,3.61889 2.52931,4.07 -0.14034,0.14034 -1.30092,-0.59288 -2.57907,-1.62936 z"
       style="fill:none;stroke:#7a2b2b;stroke-width:0.50336415;stroke-opacity:1" />
    <path
       id="path4000"
       d="m 296.66043,200.32064 c 0.0133,-0.64996 0.69295,-1.39482 2.2883,-2.50773 2.29318,-1.59971 18.44128,-10.27065 18.68094,-10.03099 0.19638,0.19638 -20.22162,12.91624 -20.73323,12.91624 -0.13404,0 -0.24025,-0.16989 -0.23601,-0.37752 z"
       style="fill:none;stroke:#7a2b2b;stroke-width:0.50336415;stroke-opacity:1" />
  </g>
</svg>
