<?xml version="1.0" encoding="UTF-8" standalone="no"?>
<!-- Created with Inkscape (http://www.inkscape.org/) -->

<svg
   xmlns:dc="http://purl.org/dc/elements/1.1/"
   xmlns:cc="http://creativecommons.org/ns#"
   xmlns:rdf="http://www.w3.org/1999/02/22-rdf-syntax-ns#"
   xmlns:svg="http://www.w3.org/2000/svg"
   xmlns="http://www.w3.org/2000/svg"
   xmlns:xlink="http://www.w3.org/1999/xlink"
   xmlns:sodipodi="http://sodipodi.sourceforge.net/DTD/sodipodi-0.dtd"
   xmlns:inkscape="http://www.inkscape.org/namespaces/inkscape"
   version="1.0"
   width="501.02594"
   height="617.32672"
   id="svg2"
   style="display:inline"
   inkscape:version="0.48.2 r9819"
   sodipodi:docname="Bugzilla_Lifecycle_color-aqua.svg"
   inkscape:export-filename="C:\Users\chri2018\Desktop\Tool-assisted V&amp;V\fig\v_and_v_process.png"
   inkscape:export-xdpi="90"
   inkscape:export-ydpi="90">
  <metadata
     id="metadata238">
    <rdf:RDF>
      <cc:Work
         rdf:about="">
        <dc:format>image/svg+xml</dc:format>
        <dc:type
           rdf:resource="http://purl.org/dc/dcmitype/StillImage" />
        <dc:title></dc:title>
      </cc:Work>
    </rdf:RDF>
  </metadata>
  <sodipodi:namedview
     pagecolor="#ffffff"
     bordercolor="#666666"
     borderopacity="1"
     objecttolerance="10"
     gridtolerance="10"
     guidetolerance="10"
     inkscape:pageopacity="0"
     inkscape:pageshadow="2"
     inkscape:window-width="1680"
     inkscape:window-height="998"
     id="namedview236"
     showgrid="false"
     inkscape:zoom="1.1279998"
     inkscape:cx="96.218022"
     inkscape:cy="352.77835"
     inkscape:window-x="-8"
     inkscape:window-y="-8"
     inkscape:window-maximized="1"
     inkscape:current-layer="svg2"
     fit-margin-top="0"
     fit-margin-left="0"
     fit-margin-right="0"
     fit-margin-bottom="0" />
  <defs
     id="defs5">
    <marker
       refX="0"
       refY="0"
       orient="auto"
       id="Arrow2Mend"
       style="overflow:visible">
      <path
         d="M 8.7185878,4.0337352 -2.2072895,0.01601326 8.7185884,-4.0017078 c -1.7454984,2.3720609 -1.7354408,5.6174519 -6e-7,8.035443 z"
         transform="scale(-0.6,-0.6)"
         id="path3312"
         style="font-size:12px;fill-rule:evenodd;stroke-width:0.625;stroke-linejoin:round"
         inkscape:connector-curvature="0" />
    </marker>
    <marker
       refX="0"
       refY="0"
       orient="auto"
       id="Arrow1Mend"
       style="overflow:visible">
      <path
         d="M 0,0 5,-5 -12.5,0 5,5 0,0 z"
         transform="matrix(-0.4,0,0,-0.4,-4,0)"
         id="path3294"
         style="fill-rule:evenodd;stroke:#000000;stroke-width:1pt;marker-start:none"
         inkscape:connector-curvature="0" />
    </marker>
    <linearGradient
       id="linearGradient3162">
      <stop
         id="stop3170"
         style="stop-color:#ffffff;stop-opacity:1"
         offset="0" />
      <stop
         id="stop3172"
         style="stop-color:#ffffff;stop-opacity:0"
         offset="0.5" />
      <stop
         id="stop3174"
         style="stop-color:#ffffff;stop-opacity:0"
         offset="0.69999999" />
      <stop
         id="stop3166"
         style="stop-color:#ffffff;stop-opacity:0.49803922"
         offset="1" />
    </linearGradient>
    <filter
       id="filter3348"
       color-interpolation-filters="sRGB">
      <feGaussianBlur
         id="feGaussianBlur3350"
         stdDeviation="0.76929113"
         inkscape:collect="always" />
    </filter>
    <linearGradient
       x1="224.98659"
       y1="142.58289"
       x2="224.98659"
       y2="182.66405"
       id="linearGradient3248"
       xlink:href="#linearGradient3162"
       gradientUnits="userSpaceOnUse" />
    <linearGradient
       x1="224.98659"
       y1="142.58289"
       x2="224.98659"
       y2="182.66405"
       id="linearGradient3270"
       xlink:href="#linearGradient3162"
       gradientUnits="userSpaceOnUse" />
    <linearGradient
       x1="224.98659"
       y1="142.58289"
       x2="224.98659"
       y2="182.66405"
       id="linearGradient7230"
       xlink:href="#linearGradient3162"
       gradientUnits="userSpaceOnUse" />
    <linearGradient
       x1="224.98659"
       y1="142.58289"
       x2="224.98659"
       y2="182.66405"
       id="linearGradient7232"
       xlink:href="#linearGradient3162"
       gradientUnits="userSpaceOnUse" />
    <linearGradient
       inkscape:collect="always"
       xlink:href="#linearGradient3162"
       id="linearGradient4365"
       gradientUnits="userSpaceOnUse"
       x1="224.98659"
       y1="142.58289"
       x2="224.98659"
       y2="182.66405" />
    <linearGradient
       inkscape:collect="always"
       xlink:href="#linearGradient3162"
       id="linearGradient4367"
       gradientUnits="userSpaceOnUse"
       x1="224.98659"
       y1="142.58289"
       x2="224.98659"
       y2="182.66405" />
  </defs>
  <g
     style="opacity:0.41150441;fill:#000000;fill-opacity:1"
     id="g7279"
     transform="translate(-25.220211,25.653364)">
    <path
       inkscape:connector-curvature="0"
       style="fill:#000000;fill-opacity:1;fill-rule:evenodd;stroke:none"
       id="path3280"
       d="m 327.875,81.6875 c -0.27071,-1.04e-4 -0.5299,0.10954 -0.71836,0.303884 -0.18845,0.194345 -0.29007,0.456785 -0.28164,0.727366 0,7.567244 -1.57629,13.110604 -4.25,17.21875 -2.67371,4.10815 -6.46752,6.81392 -11.125,8.625 -9.31495,3.62216 -22.00902,3.50605 -34.8125,3.28125 -12.80348,-0.2248 -25.70308,-0.54405 -35.59375,3.09375 -4.94533,1.8189 -9.15863,4.6491 -12.09375,9 -2.93512,4.3509 -4.5625,10.16675 -4.5625,17.8125 -0.005,0.36064 0.18438,0.69608 0.49587,0.87789 0.3115,0.1818 0.69676,0.1818 1.00826,0 0.31149,-0.18181 0.50097,-0.51725 0.49587,-0.87789 0,-7.3613 1.55119,-12.73322 4.21875,-16.6875 2.66756,-3.95428 6.46575,-6.53632 11.125,-8.25 9.31851,-3.42736 22.03501,-3.19364 34.84375,-2.96875 12.80874,0.22489 25.73078,0.44116 35.625,-3.40625 4.94711,-1.9237 9.13353,-4.9059 12.0625,-9.40625 2.92897,-4.500349 4.5625,-10.468274 4.5625,-18.3125 0.008,-0.270581 -0.0932,-0.533021 -0.28164,-0.727366 C 328.4049,81.79704 328.14571,81.687396 327.875,81.6875 z" />
    <path
       inkscape:connector-curvature="0"
       style="font-size:12px;fill:#000000;fill-opacity:1;fill-rule:evenodd;stroke-width:0.625;stroke-linejoin:round"
       id="path7285"
       d="m 230.27139,131.29001 -4.82126,13.11106 -4.82127,-13.11106 c 2.84647,2.0946 6.74094,2.08253 9.64253,0 z" />
  </g>
  <g
     style="opacity:0.41150441;fill:#000000;fill-opacity:1"
     id="g7287"
     transform="translate(-25.220211,25.653364)">
    <path
       inkscape:connector-curvature="0"
       style="fill:#000000;fill-opacity:1;fill-rule:evenodd;stroke:none"
       id="path4587"
       d="m 326.53125,-1.40625 c -0.50296,0.063396 -0.87893,0.49307923 -0.875,1 l 0,41.34375 c -0.005,0.360636 0.18438,0.696081 0.49587,0.877888 0.3115,0.181806 0.69676,0.181806 1.00826,0 0.31149,-0.181807 0.50097,-0.517252 0.49587,-0.877888 l 0,-41.34375 c 0.002,-0.28835509 -0.12011,-0.56363928 -0.33564,-0.7552177 -0.21553,-0.1915784 -0.50325,-0.2808039 -0.78936,-0.2447823 l 0,0 z" />
    <path
       inkscape:connector-curvature="0"
       style="font-size:12px;fill:#000000;fill-opacity:1;fill-rule:evenodd;stroke-width:0.625;stroke-linejoin:round"
       id="path7293"
       d="m 331.48512,30.484076 -4.82126,13.111052 -4.82127,-13.111053 c 2.84647,2.094598 6.74094,2.082529 9.64253,1e-6 z" />
  </g>
  <g
     style="opacity:0.41150441;fill:#000000;fill-opacity:1"
     id="g7295"
     transform="translate(-25.220211,25.653364)">
    <path
       inkscape:connector-curvature="0"
       style="fill:#000000;fill-opacity:1;fill-rule:evenodd;stroke:none"
       id="path4589"
       d="m 122.96875,81.6875 c -0.27071,-1.04e-4 -0.5299,0.10954 -0.71836,0.303884 -0.18845,0.194345 -0.29007,0.456785 -0.28164,0.727366 0,7.844226 1.63353,13.812151 4.5625,18.3125 2.92897,4.50035 7.14664,7.48255 12.09375,9.40625 9.89422,3.84741 22.785,3.63114 35.59375,3.40625 12.80875,-0.22489 25.52524,-0.45861 34.84375,2.96875 4.65925,1.71368 8.45744,4.29572 11.125,8.25 2.66756,3.95428 4.25,9.32619 4.25,16.6875 -0.005,0.36064 0.18438,0.69608 0.49587,0.87789 0.3115,0.1818 0.69676,0.1818 1.00826,0 0.31149,-0.18181 0.50097,-0.51725 0.49587,-0.87789 0,-7.64575 -1.65863,-13.4616 -4.59375,-17.8125 -2.93512,-4.3509 -7.11717,-7.1811 -12.0625,-9 -9.89067,-3.6378 -22.79027,-3.31855 -35.59375,-3.09375 -12.80348,0.2248 -25.52879,0.34091 -34.84375,-3.28125 -4.65748,-1.81108 -8.45129,-4.51685 -11.125,-8.625 -2.67371,-4.108146 -4.25,-9.651506 -4.25,-17.21875 0.008,-0.270581 -0.0932,-0.533021 -0.28164,-0.727366 -0.18846,-0.194344 -0.44765,-0.303988 -0.71836,-0.303884 z" />
    <path
       inkscape:connector-curvature="0"
       style="font-size:12px;fill:#000000;fill-opacity:1;fill-rule:evenodd;stroke-width:0.625;stroke-linejoin:round"
       id="path7301"
       d="m 230.27139,131.29001 -4.82126,13.11106 -4.82127,-13.11106 c 2.84647,2.0946 6.74094,2.08253 9.64253,0 z" />
  </g>
  <g
     style="opacity:0.41150441;fill:#000000;fill-opacity:1"
     id="g7303"
     transform="translate(-25.220211,25.653364)">
    <path
       inkscape:connector-curvature="0"
       style="fill:#000000;fill-opacity:1;fill-rule:evenodd;stroke:none"
       id="path4591"
       d="m 162.5625,161.5625 c -0.15608,0.017 -0.30595,0.0705 -0.4375,0.15625 -25.10298,14.49321 -38.14907,33.76709 -38.34375,53.25 -0.19468,19.48291 12.47249,38.91794 38,53.65625 0.48325,0.27614 1.09886,0.10825 1.375,-0.375 0.27614,-0.48325 0.10825,-1.09886 -0.375,-1.375 -25.11832,-14.50206 -37.1859,-33.27112 -37,-51.875 0.1859,-18.60388 12.64502,-37.30268 37.34375,-51.5625 0.41563,-0.22615 0.61589,-0.71264 0.47993,-1.16585 -0.13597,-0.45322 -0.57095,-0.74913 -1.04243,-0.70915 z" />
    <path
       inkscape:connector-curvature="0"
       style="font-size:12px;fill:#000000;fill-opacity:1;fill-rule:evenodd;stroke-width:0.625;stroke-linejoin:round"
       id="path7309"
       d="m 151.14835,163.62151 13.76513,-2.38019 -8.94387,10.73087 c 0.39074,-3.51242 -1.56695,-6.87909 -4.82126,-8.35068 z" />
  </g>
  <g
     style="opacity:0.41150441;fill:#000000;fill-opacity:1"
     id="g7311"
     transform="translate(-25.220211,25.653364)">
    <path
       inkscape:connector-curvature="0"
       style="fill:#000000;fill-opacity:1;fill-rule:evenodd;stroke:none"
       id="path4593"
       d="m 225.09375,182.5 c -0.51512,0.0645 -0.8952,0.5125 -0.875,1.03125 l 0,60.84375 c -0.005,0.36064 0.18438,0.69608 0.49587,0.87789 0.3115,0.1818 0.69676,0.1818 1.00826,0 0.31149,-0.18181 0.50097,-0.51725 0.49587,-0.87789 l 0,-60.84375 c 0.0115,-0.29374 -0.10684,-0.57766 -0.32354,-0.7763 -0.2167,-0.19865 -0.50982,-0.29189 -0.80146,-0.25495 l 0,0 z" />
    <path
       inkscape:connector-curvature="0"
       style="font-size:12px;fill:#000000;fill-opacity:1;fill-rule:evenodd;stroke-width:0.625;stroke-linejoin:round"
       id="path7317"
       d="m 230.05798,233.91255 -4.82126,13.11106 -4.82127,-13.11106 c 2.84647,2.0946 6.74094,2.08253 9.64253,0 z" />
  </g>
  <g
     style="opacity:0.41150441;fill:#000000;fill-opacity:1"
     id="g7319"
     transform="translate(-25.220211,25.653364)">
    <path
       inkscape:connector-curvature="0"
       style="fill:#000000;fill-opacity:1;fill-rule:evenodd;stroke:none"
       id="path4595"
       d="m 225,285.21875 c -0.46563,0.10428 -0.79274,0.52298 -0.78125,1 l 0,58.875 c -0.005,0.36064 0.18438,0.69608 0.49587,0.87789 0.3115,0.1818 0.69676,0.1818 1.00826,0 0.31149,-0.18181 0.50097,-0.51725 0.49587,-0.87789 l 0,-58.875 c 0.007,-0.30786 -0.12736,-0.60197 -0.36543,-0.79731 -0.23806,-0.19534 -0.55284,-0.27011 -0.85332,-0.20269 z" />
    <path
       inkscape:connector-curvature="0"
       style="font-size:12px;fill:#000000;fill-opacity:1;fill-rule:evenodd;stroke-width:0.625;stroke-linejoin:round"
       id="path7325"
       d="m 230.05798,334.62857 -4.82126,13.11106 -4.82127,-13.11106 c 2.84647,2.0946 6.74094,2.08253 9.64253,0 z" />
  </g>
  <g
     style="opacity:0.41150441;fill:#000000;fill-opacity:1"
     id="g7327"
     transform="translate(-25.220211,25.653364)">
    <path
       inkscape:connector-curvature="0"
       style="fill:#000000;fill-opacity:1;fill-rule:evenodd;stroke:none"
       id="path4597"
       d="m 165.8125,466.75 c -0.55228,0.0259 -0.97901,0.49459 -0.95312,1.04687 0.0259,0.55229 0.49459,0.97902 1.04687,0.95313 l 98.125,0 c 0.36064,0.005 0.69608,-0.18438 0.87789,-0.49587 0.1818,-0.3115 0.1818,-0.69676 0,-1.00826 -0.18181,-0.31149 -0.51725,-0.50097 -0.87789,-0.49587 l -98.125,0 c -0.0312,-10e-4 -0.0625,-10e-4 -0.0937,0 z" />
    <path
       inkscape:connector-curvature="0"
       style="font-size:12px;fill:#000000;fill-opacity:1;fill-rule:evenodd;stroke-width:0.625;stroke-linejoin:round"
       id="path7333"
       d="m 176.36992,472.59489 -13.11106,-4.82126 13.11106,-4.82127 c -2.0946,2.84647 -2.08253,6.74094 0,9.64253 z" />
  </g>
  <g
     style="opacity:0.41150441;fill:#000000;fill-opacity:1"
     id="g7335"
     transform="translate(-25.220211,25.653364)">
    <path
       inkscape:connector-curvature="0"
       style="fill:#000000;fill-opacity:1;fill-rule:evenodd;stroke:none"
       id="path4603"
       d="m 288.40625,162.03125 c -0.42747,0.0652 -0.76463,0.39772 -0.83572,0.82425 -0.0711,0.42654 0.14,0.85045 0.52322,1.05075 47.7816,27.58672 63.93772,65.5409 59.8125,101.625 -4.12522,36.0841 -28.71236,70.35673 -62.84375,90.0625 -0.35011,0.1558 -0.58041,0.49797 -0.59296,0.88098 -0.0125,0.38301 0.19488,0.73951 0.53405,0.91788 0.33916,0.17838 0.75044,0.14726 1.05891,-0.0801 34.6397,-19.99925 59.60186,-54.69996 63.8125,-91.53125 4.21064,-36.83129 -12.47801,-75.73711 -60.78125,-103.625 -0.20668,-0.12298 -0.45076,-0.16735 -0.6875,-0.125 z" />
    <path
       inkscape:connector-curvature="0"
       style="font-size:12px;fill:#000000;fill-opacity:1;fill-rule:evenodd;stroke-width:0.625;stroke-linejoin:round"
       id="path7341"
       d="m 297.04712,355.41236 -13.76513,2.38019 8.94387,-10.73087 c -0.39074,3.51242 1.56695,6.87909 4.82126,8.35068 z" />
  </g>
  <g
     style="opacity:0.41150441;fill:#000000;fill-opacity:1"
     id="g7343"
     transform="translate(-25.220211,25.653364)">
    <path
       inkscape:connector-curvature="0"
       style="fill:#000000;fill-opacity:1;fill-rule:evenodd;stroke:none"
       id="path4605"
       d="m 226.0625,385.84375 c -0.50296,0.0634 -0.87893,0.49308 -0.875,1 0,7.84423 1.63518,13.84951 4.5625,18.375 2.92732,4.52549 7.11678,7.53009 12.0625,9.5 9.89143,3.93982 22.785,3.85383 35.59375,3.75 12.80875,-0.10383 25.55385,-0.20393 34.875,3.3125 4.66057,1.75821 8.4557,4.36165 11.125,8.34375 2.6693,3.9821 4.21875,9.38869 4.21875,16.75 -0.005,0.36064 0.18438,0.69608 0.49587,0.87789 0.3115,0.1818 0.69676,0.1818 1.00826,0 0.31149,-0.18181 0.50097,-0.51725 0.49587,-0.87789 0,-7.64575 -1.62913,-13.46771 -4.5625,-17.84375 -2.93337,-4.37604 -7.14974,-7.25986 -12.09375,-9.125 -9.88802,-3.73028 -22.75902,-3.54129 -35.5625,-3.4375 -12.80348,0.10379 -25.52601,0.11756 -34.84375,-3.59375 -4.65887,-1.85566 -8.44965,-4.61405 -11.125,-8.75 -2.67535,-4.13595 -4.25,-9.71401 -4.25,-17.28125 0.002,-0.28836 -0.12011,-0.56364 -0.33564,-0.75522 -0.21553,-0.19158 -0.50325,-0.2808 -0.78936,-0.24478 z" />
    <path
       inkscape:connector-curvature="0"
       style="font-size:12px;fill:#000000;fill-opacity:1;fill-rule:evenodd;stroke-width:0.625;stroke-linejoin:round"
       id="path7349"
       d="m 333.47586,436.40283 -4.82126,13.11106 -4.82127,-13.11106 c 2.84647,2.0946 6.74094,2.08253 9.64253,0 z" />
  </g>
  <g
     style="opacity:0.41150441;fill:#000000;fill-opacity:1"
     id="g7351"
     transform="translate(-25.220211,25.653364)">
    <path
       inkscape:connector-curvature="0"
       style="fill:#000000;fill-opacity:1;fill-rule:evenodd;stroke:none"
       id="path4607"
       d="m 226.0625,385.84375 c -0.50296,0.0634 -0.87893,0.49308 -0.875,1 0,7.5397 -1.855,13.08268 -5.0625,17.21875 -3.2075,4.13607 -7.80767,6.91083 -13.4375,8.78125 -11.25965,3.74083 -26.55553,3.72879 -41.90625,3.625 -15.35072,-0.10379 -30.76603,-0.29594 -42.53125,3.40625 -5.88261,1.8511 -10.85973,4.71954 -14.375,9.09375 -3.51527,4.37421 -5.5,10.23221 -5.5,17.90625 -0.005,0.36064 0.18438,0.69608 0.49587,0.87789 0.3115,0.1818 0.69676,0.1818 1.00826,0 0.31149,-0.18181 0.50097,-0.51725 0.49587,-0.87789 0,-7.33302 1.86087,-12.67232 5.0625,-16.65625 3.20163,-3.98393 7.77417,-6.66524 13.40625,-8.4375 11.26416,-3.54452 26.58239,-3.41632 41.9375,-3.3125 15.35511,0.10382 30.76153,0.19154 42.53125,-3.71875 5.88486,-1.95515 10.8656,-4.94338 14.375,-9.46875 3.5094,-4.52537 5.5,-10.56573 5.5,-18.4375 0.002,-0.28836 -0.12011,-0.56364 -0.33564,-0.75522 -0.21553,-0.19158 -0.50325,-0.2808 -0.78936,-0.24478 z" />
    <path
       inkscape:connector-curvature="0"
       style="font-size:12px;fill:#000000;fill-opacity:1;fill-rule:evenodd;stroke-width:0.625;stroke-linejoin:round"
       id="path7357"
       d="m 108.20748,436.40283 -4.82126,13.11106 -4.821269,-13.11106 c 2.846469,2.0946 6.740939,2.08253 9.642529,0 z" />
  </g>
  <g
     style="opacity:0.41150441;fill:#000000;fill-opacity:1"
     id="g7359"
     transform="translate(-25.220211,25.653364)">
    <path
       inkscape:connector-curvature="0"
       style="fill:#000000;fill-opacity:1;fill-rule:evenodd;stroke:none"
       id="path4609"
       d="m 326.78125,487.59375 c -0.51512,0.0645 -0.8952,0.5125 -0.875,1.03125 0,7.56725 -1.57465,13.11404 -4.25,17.25 -2.67535,4.13596 -6.46613,6.89434 -11.125,8.75 -9.31774,3.71131 -22.04027,3.69754 -34.84375,3.59375 -12.80348,-0.10379 -25.70573,-0.29278 -35.59375,3.4375 -4.94401,1.86514 -9.12913,4.74896 -12.0625,9.125 -2.93337,4.37604 -4.59375,10.198 -4.59375,17.84375 -0.005,0.36064 0.18438,0.69608 0.49587,0.87789 0.3115,0.1818 0.69676,0.1818 1.00826,0 0.31149,-0.18181 0.50097,-0.51725 0.49587,-0.87789 0,-7.36131 1.5807,-12.73665 4.25,-16.71875 2.6693,-3.9821 6.46443,-6.61679 11.125,-8.375 9.32115,-3.51643 22.035,-3.41633 34.84375,-3.3125 12.80875,0.10383 25.70232,0.18982 35.59375,-3.75 4.94572,-1.96991 9.16642,-4.9745 12.09375,-9.5 2.92733,-4.5255 4.5625,-10.49952 4.5625,-18.34375 0.0115,-0.29374 -0.10684,-0.57766 -0.32354,-0.7763 -0.2167,-0.19865 -0.50982,-0.29189 -0.80146,-0.25495 l 0,0 z" />
    <path
       inkscape:connector-curvature="0"
       style="font-size:12px;fill:#000000;fill-opacity:1;fill-rule:evenodd;stroke-width:0.625;stroke-linejoin:round"
       id="path7365"
       d="m 229.29048,538.15693 -4.82126,13.11106 -4.82127,-13.11106 c 2.84647,2.0946 6.74094,2.08253 9.64253,0 z" />
  </g>
  <g
     style="opacity:0.41150441;fill:#000000;fill-opacity:1"
     id="g7367"
     transform="translate(-25.220211,25.653364)">
    <path
       inkscape:connector-curvature="0"
       style="fill:#000000;fill-opacity:1;fill-rule:evenodd;stroke:none"
       id="path4611"
       d="m 102.53125,489.25 c -0.50296,0.0634 -0.87893,0.49308 -0.875,1 0,7.64575 1.62913,13.46771 4.5625,17.84375 2.93337,4.37604 7.14974,7.25986 12.09375,9.125 9.88802,3.73028 22.75902,3.54129 35.5625,3.4375 12.80348,-0.10379 25.52601,-0.11756 34.84375,3.59375 4.65887,1.85566 8.4809,4.61404 11.15625,8.75 2.67535,4.13596 4.21875,9.714 4.21875,17.28125 -0.005,0.36064 0.18438,0.69608 0.49587,0.87789 0.3115,0.1818 0.69676,0.1818 1.00826,0 0.31149,-0.18181 0.50097,-0.51725 0.49587,-0.87789 0,-7.84423 -1.63518,-13.8495 -4.5625,-18.375 -2.92732,-4.5255 -7.11678,-7.53009 -12.0625,-9.5 -9.89143,-3.93982 -22.785,-3.85383 -35.59375,-3.75 -12.80875,0.10383 -25.55385,0.20393 -34.875,-3.3125 -4.66057,-1.75821 -8.4557,-4.36165 -11.125,-8.34375 -2.6693,-3.9821 -4.21875,-9.38869 -4.21875,-16.75 0.002,-0.28836 -0.12011,-0.56364 -0.33564,-0.75522 -0.21553,-0.19158 -0.50325,-0.2808 -0.78936,-0.24478 z" />
    <path
       inkscape:connector-curvature="0"
       style="font-size:12px;fill:#000000;fill-opacity:1;fill-rule:evenodd;stroke-width:0.625;stroke-linejoin:round"
       id="path7373"
       d="m 97.813608,500.7237 4.821262,-13.11106 4.82127,13.11106 c -2.84647,-2.0946 -6.74094,-2.08253 -9.642532,0 z" />
  </g>
  <g
     style="opacity:0.41150441;fill:#000000;fill-opacity:1"
     id="g7375"
     transform="translate(-25.220211,25.653364)">
    <path
       inkscape:connector-curvature="0"
       style="fill:#000000;fill-opacity:1;fill-rule:evenodd;stroke:none"
       id="path4613"
       d="m 287.625,365.84375 c -0.55228,0.0518 -0.95803,0.54147 -0.90625,1.09375 0.0518,0.55228 0.54147,0.95803 1.09375,0.90625 80.27586,-10e-6 120.18993,50.07015 120.25,100.0625 0.0601,49.99235 -39.72368,100.03125 -120.25,100.03125 -0.36064,-0.005 -0.69608,0.18438 -0.87789,0.49587 -0.1818,0.3115 -0.1818,0.69676 0,1.00826 0.18181,0.31149 0.51725,0.50097 0.87789,0.49587 81.3586,0 122.31135,-51.00379 122.25,-102.0625 -0.0614,-51.05871 -41.13928,-102.03126 -122.25,-102.03125 -0.0624,-0.006 -0.12514,-0.006 -0.1875,0 z" />
    <path
       inkscape:connector-curvature="0"
       style="font-size:12px;fill:#000000;fill-opacity:1;fill-rule:evenodd;stroke-width:0.625;stroke-linejoin:round"
       id="path7381"
       d="m 298.28287,573.78224 -13.11106,-4.82126 13.11106,-4.82127 c -2.0946,2.84647 -2.08253,6.74094 0,9.64253 z" />
  </g>
  <g
     style="opacity:0.41150441;fill:#000000;fill-opacity:1"
     id="g7383"
     transform="translate(-25.220211,25.653364)">
    <path
       inkscape:connector-curvature="0"
       style="fill:#000000;fill-opacity:1;fill-rule:evenodd;stroke:none"
       id="path5136"
       d="m 384.59375,73.875 c -0.38925,0.03788 -0.72071,0.299187 -0.84841,0.668844 -0.1277,0.369658 -0.0282,0.779835 0.25466,1.049906 53.04067,53.04067 71.8577,125.69648 56,185 -15.8577,59.30352 -66.22083,105.34376 -152.1875,105.34375 -0.36064,-0.005 -0.69608,0.18438 -0.87789,0.49587 -0.1818,0.3115 -0.1818,0.69676 0,1.00826 0.18181,0.31149 0.51725,0.50097 0.87789,0.49587 86.6829,10e-6 138.06017,-46.73437 154.125,-106.8125 16.06483,-60.07813 -3.01218,-133.41843 -56.53125,-186.9375 -0.20891,-0.222757 -0.50816,-0.337851 -0.8125,-0.3125 z" />
    <path
       inkscape:connector-curvature="0"
       style="font-size:12px;fill:#000000;fill-opacity:1;fill-rule:evenodd;stroke-width:0.625;stroke-linejoin:round"
       id="path7389"
       d="m 388.68837,85.704773 -5.86176,-12.680065 12.68006,5.861766 c -3.49387,0.531656 -6.23914,3.293996 -6.8183,6.818299 z" />
  </g>
  <g
     style="opacity:0.41150441;fill:#000000;fill-opacity:1"
     id="g7391"
     transform="translate(-25.220211,25.653364)">
    <path
       inkscape:connector-curvature="0"
       style="fill:#000000;fill-opacity:1;fill-rule:evenodd;stroke:none"
       id="path5138"
       d="m 384.59375,73.875 c -0.38925,0.03788 -0.72071,0.299187 -0.84841,0.668844 -0.1277,0.369658 -0.0282,0.779835 0.25466,1.049906 53.02885,53.02885 79.69154,136.25222 80.28125,213.53125 0.58971,77.27903 -24.89543,148.4661 -75.5625,177.71875 -0.35011,0.1558 -0.58041,0.49797 -0.59296,0.88098 -0.0125,0.38301 0.19488,0.73951 0.53405,0.91788 0.33916,0.17838 0.75044,0.14726 1.05891,-0.0801 51.62938,-29.80823 77.15563,-101.74141 76.5625,-179.46875 -0.59313,-77.72734 -27.34411,-161.37536 -80.875,-214.90625 -0.20891,-0.222757 -0.50816,-0.337851 -0.8125,-0.3125 z" />
    <path
       inkscape:connector-curvature="0"
       style="font-size:12px;fill:#000000;fill-opacity:1;fill-rule:evenodd;stroke-width:0.625;stroke-linejoin:round"
       id="path7397"
       d="m 388.68837,85.704773 -5.86176,-12.680065 12.68006,5.861766 c -3.49387,0.531656 -6.23914,3.293996 -6.8183,6.818299 z" />
  </g>
  <g
     style="opacity:0.41150441;fill:#000000;fill-opacity:1"
     id="g7399"
     transform="translate(-25.220211,25.653364)">
    <path
       inkscape:connector-curvature="0"
       style="fill:#000000;fill-opacity:1;fill-rule:evenodd;stroke:none"
       id="path5140"
       d="m 384.59375,73.875 c -0.38925,0.03788 -0.72071,0.299187 -0.84841,0.668844 -0.1277,0.369658 -0.0282,0.779835 0.25466,1.049906 80.81587,80.81587 107.64894,207.73309 88.03125,314.375 -9.80884,53.32096 -31.24552,101.5476 -63.21875,136.40625 -31.97323,34.85865 -74.46402,56.375 -126.6875,56.375 -0.36064,-0.005 -0.69608,0.18438 -0.87789,0.49587 -0.1818,0.3115 -0.1818,0.69676 0,1.00826 0.18181,0.31149 0.51725,0.50097 0.87789,0.49587 52.77373,0 95.89395,-21.82337 128.1875,-57.03125 32.29355,-35.20788 53.82383,-83.756 63.6875,-137.375 19.72734,-107.238 -7.19456,-234.75706 -88.59375,-316.15625 -0.20891,-0.222757 -0.50816,-0.337851 -0.8125,-0.3125 z" />
    <path
       inkscape:connector-curvature="0"
       style="font-size:12px;fill:#000000;fill-opacity:1;fill-rule:evenodd;stroke-width:0.625;stroke-linejoin:round"
       id="path7405"
       d="m 388.68837,85.704773 -5.86176,-12.680065 12.68006,5.861766 c -3.49387,0.531656 -6.23914,3.293995 -6.8183,6.818299 z" />
  </g>
  <g
     style="opacity:0.41150441;fill:#000000;fill-opacity:1"
     id="g7407"
     transform="translate(-25.220211,25.653364)">
    <path
       inkscape:connector-curvature="0"
       style="fill:#000000;fill-opacity:1;fill-rule:evenodd;stroke:none"
       id="path5142"
       d="m 327.84375,81.6875 c -0.35753,0.01235 -0.68124,0.214729 -0.84892,0.530741 -0.16768,0.316013 -0.15379,0.697523 0.0364,1.000509 12.71667,22.02592 18.23009,58.37159 12.78125,93.5625 -5.44884,35.19091 -21.80126,69.18232 -52.5,86.90625 -0.35011,0.1558 -0.58041,0.49797 -0.59296,0.88098 -0.0125,0.38301 0.19488,0.73951 0.53405,0.91788 0.33916,0.17838 0.75044,0.14726 1.05891,-0.0801 31.3902,-18.12314 47.98837,-52.71606 53.5,-88.3125 5.51163,-35.59644 0.034,-72.2453 -13.03125,-94.875 -0.18223,-0.344689 -0.54816,-0.552051 -0.9375,-0.53125 z" />
    <path
       inkscape:connector-curvature="0"
       style="font-size:12px;fill:#000000;fill-opacity:1;fill-rule:evenodd;stroke-width:0.625;stroke-linejoin:round"
       id="path7413"
       d="m 299.30758,263.50094 -13.76513,2.38019 8.94387,-10.73087 c -0.39074,3.51242 1.56695,6.87909 4.82126,8.35068 z" />
  </g>
  <g
     style="opacity:0.41150441;fill:#000000;fill-opacity:1"
     id="g7415"
     transform="translate(-25.220211,25.653364)">
    <path
       inkscape:connector-curvature="0"
       style="fill:#000000;fill-opacity:1;fill-rule:evenodd;stroke:none"
       id="path5144"
       d="m 327.6875,81.71875 c -0.35965,0.07555 -0.6489,0.342262 -0.7533,0.694623 -0.10441,0.352361 -0.007,0.733596 0.2533,0.992877 47.4137,47.41371 70.52758,95.99011 65.0625,142.34375 -5.46508,46.35364 -39.52274,90.77748 -107.1875,129.84375 -0.35011,0.1558 -0.58041,0.49797 -0.59296,0.88098 -0.0125,0.38301 0.19488,0.73951 0.53405,0.91788 0.33916,0.17838 0.75044,0.14726 1.05891,-0.0801 C 354.04431,318.06319 388.68914,273.16607 394.25,226 399.81086,178.83393 376.26058,129.66683 328.59375,82 328.3582,81.759788 328.01766,81.654103 327.6875,81.71875 l 0,0 z" />
    <path
       inkscape:connector-curvature="0"
       style="font-size:12px;fill:#000000;fill-opacity:1;fill-rule:evenodd;stroke-width:0.625;stroke-linejoin:round"
       id="path7421"
       d="m 297.04712,355.41236 -13.76513,2.38019 8.94387,-10.73087 c -0.39074,3.51242 1.56695,6.87909 4.82126,8.35068 z" />
  </g>
  <g
     style="opacity:0.41150441;fill:#000000;fill-opacity:1"
     id="g7423"
     transform="translate(-25.220211,25.653364)">
    <path
       inkscape:connector-curvature="0"
       style="fill:#000000;fill-opacity:1;fill-rule:evenodd;stroke:none"
       id="path5667"
       d="m 162.5625,365.71875 c -0.0634,0.004 -0.12613,0.0149 -0.1875,0.0312 -19.64181,5.26301 -38.22306,15.18118 -51.9375,28.90625 -13.714443,13.72507 -22.531252,31.30995 -22.53125,51.78125 -0.0051,0.36064 0.184375,0.69608 0.495873,0.87789 0.311497,0.1818 0.696757,0.1818 1.008254,0 0.311498,-0.18181 0.500973,-0.51725 0.495873,-0.87789 -2e-6,-19.89711 8.522162,-36.94927 21.9375,-50.375 13.41534,-13.42573 31.72245,-23.19285 51.0625,-28.375 0.52427,-0.11376 0.8654,-0.6209 0.77313,-1.14938 -0.0923,-0.52847 -0.58508,-0.89001 -1.11688,-0.81937 z" />
    <path
       inkscape:connector-curvature="0"
       style="font-size:12px;fill:#000000;fill-opacity:1;fill-rule:evenodd;stroke-width:0.625;stroke-linejoin:round"
       id="path7429"
       d="m 151.2838,364.76238 13.91214,1.26359 -11.41647,8.05038 c 1.28651,-3.29161 0.26688,-7.05025 -2.49567,-9.31397 z" />
  </g>
  <g
     style="opacity:0.41150441;fill:#000000;fill-opacity:1"
     id="g7431"
     transform="translate(-25.220211,25.653364)">
    <path
       inkscape:connector-curvature="0"
       style="fill:#000000;fill-opacity:1;fill-rule:evenodd;stroke:none"
       id="path5669"
       d="m 166.6875,276.875 c -0.22394,0.0242 -0.43315,0.12331 -0.59375,0.28125 -31.32558,31.32558 -78.187498,93.89604 -78.1875,169.28125 -0.0051,0.36064 0.184375,0.69608 0.495873,0.87789 0.311497,0.1818 0.696757,0.1818 1.008254,0 0.311498,-0.18181 0.500973,-0.51725 0.495873,-0.87789 2e-6,-74.55477 46.50519,-136.75519 77.59375,-167.84375 0.31424,-0.29727 0.40174,-0.76287 0.21687,-1.15394 -0.18487,-0.39107 -0.60021,-0.61897 -1.02937,-0.56481 z" />
    <path
       inkscape:connector-curvature="0"
       style="font-size:12px;fill:#000000;fill-opacity:1;fill-rule:evenodd;stroke-width:0.625;stroke-linejoin:round"
       id="path7437"
       d="m 155.9718,281.8526 12.68006,-5.86176 -5.86177,12.68006 c -0.53165,-3.49387 -3.29399,-6.23914 -6.81829,-6.8183 z" />
  </g>
  <g
     style="font-size:14px;font-style:normal;font-variant:normal;font-weight:normal;font-stretch:normal;text-align:center;line-height:125%;writing-mode:lr-tb;text-anchor:middle;font-family:Bitstream Vera Sans;-inkscape-font-specification:Bitstream Vera Sans"
     id="g3352"
     transform="translate(-24.970082,25.653364)">
    <rect
       style="font-size:14px;font-style:normal;font-variant:normal;font-weight:normal;font-stretch:normal;text-align:center;line-height:125%;writing-mode:lr-tb;text-anchor:middle;fill:#ff2020;fill-opacity:1;fill-rule:evenodd;stroke:none;font-family:Bitstream Vera Sans;-inkscape-font-specification:Bitstream Vera Sans"
       id="rect2384"
       y="141.75232"
       x="162.37901"
       ry="20.883835"
       rx="20.883835"
       height="41.76767"
       width="125.21514" />
    <rect
       style="font-size:13.83214664px;font-style:normal;font-variant:normal;font-weight:normal;font-stretch:normal;text-align:center;line-height:125%;writing-mode:lr-tb;text-anchor:middle;fill:url(#linearGradient4365);fill-opacity:1;fill-rule:evenodd;stroke:none;filter:url(#filter3348);font-family:Bitstream Vera Sans;-inkscape-font-specification:Bitstream Vera Sans"
       id="rect3160"
       transform="matrix(1.0100285,0,0,1.014246,-2.2562777,-2.3169125)"
       y="142.60828"
       x="168.08536"
       ry="13.557775"
       rx="12.994278"
       height="40.055767"
       width="113.80246" />
  </g>
  <text
     sodipodi:linespacing="125%"
     style="font-size:14px;font-style:normal;font-variant:normal;font-weight:normal;font-stretch:normal;text-align:center;line-height:125%;writing-mode:lr-tb;text-anchor:middle;fill:#000000;fill-opacity:1;stroke:none;font-family:Bitstream Vera Sans;-inkscape-font-specification:Bitstream Vera Sans"
     xml:space="preserve"
     id="text3198"
     y="193.39255"
     x="199.55505"><tspan
       id="tspan3200"
       y="193.39255"
       x="199.55505">New</tspan></text>
  <use
     xlink:href="#g3352"
     height="591"
     width="491"
     y="0"
     x="0"
     id="use3238"
     transform="translate(-2.3583985e-7,102.68613)" />
  <text
     sodipodi:linespacing="125%"
     style="font-size:14px;font-style:normal;font-variant:normal;font-weight:normal;font-stretch:normal;text-align:center;line-height:125%;writing-mode:lr-tb;text-anchor:middle;fill:#000000;fill-opacity:1;stroke:none;font-family:Bitstream Vera Sans;-inkscape-font-specification:Bitstream Vera Sans"
     xml:space="preserve"
     id="text3208"
     y="296.07184"
     x="200.37195"><tspan
       id="tspan3210"
       y="296.07184"
       x="200.37195">Assigned</tspan></text>
  <use
     xlink:href="#g3352"
     height="591"
     width="491"
     y="0"
     x="0"
     id="use3240"
     transform="translate(-121.8763,305.11826)" />
  <text
     sodipodi:linespacing="125%"
     style="font-size:14px;font-style:normal;font-variant:normal;font-weight:normal;font-stretch:normal;text-align:center;line-height:125%;writing-mode:lr-tb;text-anchor:middle;fill:#000000;fill-opacity:1;stroke:none;font-family:Bitstream Vera Sans;-inkscape-font-specification:Bitstream Vera Sans"
     xml:space="preserve"
     id="text3220"
     y="498.50397"
     x="77.86335"><tspan
       id="tspan3222"
       y="498.50397"
       x="77.86335">Reopened</tspan></text>
  <g
     style="font-size:14px;font-style:normal;font-variant:normal;font-weight:normal;font-stretch:normal;text-align:center;line-height:125%;writing-mode:lr-tb;text-anchor:middle;fill-rule:nonzero;font-family:Bitstream Vera Sans;-inkscape-font-specification:Bitstream Vera Sans"
     id="g3242"
     transform="translate(76.457056,-75.152577)">
    <rect
       style="font-size:14px;font-style:normal;font-variant:normal;font-weight:normal;font-stretch:normal;text-align:center;line-height:125%;writing-mode:lr-tb;text-anchor:middle;fill:#ff7f00;fill-opacity:1;fill-rule:nonzero;stroke:none;font-family:Bitstream Vera Sans;-inkscape-font-specification:Bitstream Vera Sans"
       id="rect3244"
       y="141.75232"
       x="162.37901"
       ry="20.883835"
       rx="20.883835"
       height="41.76767"
       width="125.21514" />
    <rect
       style="font-size:13.83214664px;font-style:normal;font-variant:normal;font-weight:normal;font-stretch:normal;text-align:center;line-height:125%;writing-mode:lr-tb;text-anchor:middle;fill:url(#linearGradient3248);fill-opacity:1;fill-rule:nonzero;stroke:none;filter:url(#filter3348);font-family:Bitstream Vera Sans;-inkscape-font-specification:Bitstream Vera Sans"
       id="rect3246"
       transform="matrix(1.0100285,0,0,1.014246,-2.2562777,-2.3169125)"
       y="142.60828"
       x="168.08536"
       ry="13.557775"
       rx="12.994278"
       height="40.055767"
       width="113.80246" />
  </g>
  <g
     style="font-size:14px;font-style:normal;font-variant:normal;font-weight:normal;font-stretch:normal;text-align:center;line-height:125%;writing-mode:lr-tb;text-anchor:middle;font-family:Bitstream Vera Sans;-inkscape-font-specification:Bitstream Vera Sans"
     id="g3250"
     transform="translate(-24.970082,228.99191)">
    <rect
       style="font-size:14px;font-style:normal;font-variant:normal;font-weight:normal;font-stretch:normal;text-align:center;line-height:125%;writing-mode:lr-tb;text-anchor:middle;fill:#00ff00;fill-opacity:1;fill-rule:evenodd;stroke:none;font-family:Bitstream Vera Sans;-inkscape-font-specification:Bitstream Vera Sans"
       id="rect3252"
       y="141.75232"
       x="162.37901"
       ry="20.883835"
       rx="20.883835"
       height="41.76767"
       width="125.21514" />
    <rect
       style="font-size:13.83214664px;font-style:normal;font-variant:normal;font-weight:normal;font-stretch:normal;text-align:center;line-height:125%;writing-mode:lr-tb;text-anchor:middle;fill:url(#linearGradient4367);fill-opacity:1;fill-rule:evenodd;stroke:none;filter:url(#filter3348);font-family:Bitstream Vera Sans;-inkscape-font-specification:Bitstream Vera Sans"
       id="rect3254"
       transform="matrix(1.0100285,0,0,1.014246,-2.2562777,-2.3169125)"
       y="142.60828"
       x="168.08536"
       ry="13.557775"
       rx="12.994278"
       height="40.055767"
       width="113.80246" />
  </g>
  <text
     sodipodi:linespacing="125%"
     style="font-size:14px;font-style:normal;font-variant:normal;font-weight:normal;font-stretch:normal;text-align:center;line-height:125%;writing-mode:lr-tb;text-anchor:middle;fill:#000000;fill-opacity:1;stroke:none;font-family:Bitstream Vera Sans;-inkscape-font-specification:Bitstream Vera Sans"
     xml:space="preserve"
     id="text3232"
     y="396.72424"
     x="199.73962"><tspan
       id="tspan3234"
       y="396.72424"
       x="199.73962">Resolved</tspan></text>
  <text
     sodipodi:linespacing="125%"
     style="font-size:14px;font-style:normal;font-variant:normal;font-weight:normal;font-stretch:normal;text-align:center;line-height:125%;writing-mode:lr-tb;text-anchor:middle;fill:#000000;fill-opacity:1;stroke:none;font-family:Bitstream Vera Sans;-inkscape-font-specification:Bitstream Vera Sans"
     xml:space="preserve"
     id="text3258"
     y="92.579773"
     x="301.24539"><tspan
       id="tspan3260"
       y="92.579773"
       x="301.24539">Unconfirmed</tspan></text>
  <use
     xlink:href="#g3250"
     height="591"
     width="491"
     y="0"
     x="0"
     id="use3262"
     transform="translate(101.42714,101.77971)" />
  <use
     xlink:href="#g3250"
     height="591"
     width="491"
     y="0"
     x="0"
     id="use3272"
     transform="translate(-2.3583985e-7,203.51287)" />
  <text
     sodipodi:linespacing="125%"
     style="font-size:14px;font-style:normal;font-variant:normal;font-weight:normal;font-stretch:normal;text-align:center;line-height:125%;writing-mode:lr-tb;text-anchor:middle;fill:#000000;fill-opacity:1;stroke:none;font-family:Bitstream Vera Sans;-inkscape-font-specification:Bitstream Vera Sans"
     xml:space="preserve"
     id="text3274"
     y="498.5108"
     x="301.7991"><tspan
       id="tspan3276"
       y="498.5108"
       x="301.7991">Verified</tspan></text>
  <text
     sodipodi:linespacing="125%"
     style="font-size:14px;font-style:normal;font-variant:normal;font-weight:normal;font-stretch:normal;text-align:center;line-height:125%;writing-mode:lr-tb;text-anchor:middle;fill:#000000;fill-opacity:1;stroke:none;font-family:Bitstream Vera Sans;-inkscape-font-specification:Bitstream Vera Sans"
     xml:space="preserve"
     id="text3278"
     y="600.23712"
     x="200.03357"><tspan
       id="tspan3280"
       y="600.23712"
       x="200.03357">Closed</tspan></text>
  <text
     sodipodi:linespacing="100%"
     style="font-size:11px;font-style:normal;font-variant:normal;font-weight:normal;font-stretch:normal;text-align:center;line-height:100%;writing-mode:lr-tb;text-anchor:middle;fill:#000000;fill-opacity:1;stroke:none;font-family:Bitstream Vera Sans;-inkscape-font-specification:Bitstream Vera Sans"
     xml:space="preserve"
     id="text6228"
     y="410.61624"
     x="104.56564"><tspan
       id="tspan6234"
       y="410.61624"
       x="104.56564">Issue is</tspan><tspan
       id="tspan6241"
       y="421.61624"
       x="104.56564">resolved</tspan></text>
  <text
     sodipodi:linespacing="100%"
     style="font-size:11px;font-style:normal;font-variant:normal;font-weight:normal;font-stretch:normal;text-align:center;line-height:100%;writing-mode:lr-tb;text-anchor:middle;fill:#000000;fill-opacity:1;stroke:none;font-family:Bitstream Vera Sans;-inkscape-font-specification:Bitstream Vera Sans"
     xml:space="preserve"
     id="text6243"
     y="441.9404"
     x="137.84811"><tspan
       id="tspan6247"
       y="441.9404"
       x="137.84811">QA not satisfied</tspan><tspan
       id="tspan6251"
       y="452.9404"
       x="137.84811">with solution</tspan></text>
  <text
     sodipodi:linespacing="100%"
     style="font-size:11px;font-style:normal;font-variant:normal;font-weight:normal;font-stretch:normal;text-align:center;line-height:100%;writing-mode:lr-tb;text-anchor:middle;fill:#000000;fill-opacity:1;stroke:none;font-family:Bitstream Vera Sans;-inkscape-font-specification:Bitstream Vera Sans"
     xml:space="preserve"
     id="text6253"
     y="441.9404"
     x="254.31235"><tspan
       id="tspan6257"
       y="441.9404"
       x="254.31235">QA verified</tspan><tspan
       id="tspan6261"
       y="452.9404"
       x="254.31235">solution worked</tspan></text>
  <text
     sodipodi:linespacing="100%"
     style="font-size:11px;font-style:normal;font-variant:normal;font-weight:normal;font-stretch:normal;text-align:center;line-height:100%;writing-mode:lr-tb;text-anchor:middle;fill:#000000;fill-opacity:1;stroke:none;font-family:Bitstream Vera Sans;-inkscape-font-specification:Bitstream Vera Sans"
     xml:space="preserve"
     id="text6263"
     y="492.0087"
     x="200.01648" />
  <text
     sodipodi:linespacing="100%"
     style="font-size:11px;font-style:normal;font-variant:normal;font-weight:normal;font-stretch:normal;text-align:center;line-height:100%;writing-mode:lr-tb;text-anchor:middle;fill:#000000;fill-opacity:1;stroke:none;font-family:Bitstream Vera Sans;-inkscape-font-specification:Bitstream Vera Sans"
     xml:space="preserve"
     id="text6279"
     y="543.69452"
     x="248.74927"><tspan
       id="tspan6281"
       y="543.69452"
       x="248.74927" /></text>
  <text
     sodipodi:linespacing="100%"
     style="font-size:11px;font-style:normal;font-variant:normal;font-weight:normal;font-stretch:normal;text-align:center;line-height:100%;writing-mode:lr-tb;text-anchor:middle;fill:#000000;fill-opacity:1;stroke:none;font-family:Bitstream Vera Sans;-inkscape-font-specification:Bitstream Vera Sans"
     xml:space="preserve"
     id="text6293"
     y="238.18501"
     x="100.12565"><tspan
       id="tspan6299"
       y="238.18501"
       x="100.12565">Ownership</tspan><tspan
       id="tspan6306"
       y="249.18501"
       x="100.12565">is changed</tspan></text>
  <text
     sodipodi:linespacing="100%"
     style="font-size:11px;font-style:normal;font-variant:normal;font-weight:normal;font-stretch:normal;text-align:center;line-height:100%;writing-mode:lr-tb;text-anchor:middle;fill:#000000;fill-opacity:1;stroke:none;font-family:Bitstream Vera Sans;-inkscape-font-specification:Bitstream Vera Sans"
     xml:space="preserve"
     id="text6356"
     y="139.94241"
     x="404.22455"><tspan
       id="tspan6364"
       y="150.94241"
       x="404.22455" /></text>
  <text
     sodipodi:linespacing="125%"
     id="text3219"
     y="80.679649"
     x="0.017578125"
     style="font-size:12px;font-style:normal;font-weight:normal;line-height:125%;letter-spacing:0px;word-spacing:0px;fill:#000000;fill-opacity:1;stroke:none;font-family:Sans"
     xml:space="preserve"><tspan
       style="font-weight:normal;fill:#000000;fill-opacity:1;stroke:none;-inkscape-font-specification:Sans"
       y="80.679649"
       x="0.017578125"
       id="tspan3221"
       sodipodi:role="line">A user with authorization or </tspan><tspan
       style="font-weight:normal;fill:#000000;fill-opacity:1;stroke:none;-inkscape-font-specification:Sans"
       id="tspan3225"
       y="95.679649"
       x="0.017578125"
       sodipodi:role="line">relation to the document always</tspan><tspan
       style="font-weight:normal;fill:#000000;fill-opacity:1;stroke:none;-inkscape-font-specification:Sans"
       id="tspan3229"
       y="110.67965"
       x="0.017578125"
       sodipodi:role="line">opens issues without confirmation</tspan></text>
  <text
     xml:space="preserve"
     style="font-size:12px;font-style:normal;font-weight:normal;line-height:125%;letter-spacing:0px;word-spacing:0px;fill:#000000;fill-opacity:1;stroke:none;font-family:Sans"
     x="228.82434"
     y="8.5898438"
     id="text3266"
     sodipodi:linespacing="125%"><tspan
       sodipodi:role="line"
       x="228.82434"
       y="8.5898438"
       id="tspan3270"
       style="fill:#000000;fill-opacity:1;stroke:none">Any user within the system can raise</tspan><tspan
       sodipodi:role="line"
       x="228.82434"
       y="23.589844"
       id="tspan3274"
       style="fill:#000000;fill-opacity:1;stroke:none">new issues, but confirmation is needed</tspan></text>
  <text
     xml:space="preserve"
     style="font-size:12px;font-style:normal;font-weight:normal;line-height:125%;letter-spacing:0px;word-spacing:0px;fill:#000000;fill-opacity:1;stroke:none;display:inline;font-family:Sans"
     x="395.38141"
     y="491.61145"
     id="text3266-3"
     sodipodi:linespacing="125%"><tspan
       sodipodi:role="line"
       x="395.38141"
       y="491.61145"
       id="tspan3274-6"
       style="fill:#000000;fill-opacity:1;stroke:none">Reopening an issue</tspan><tspan
       sodipodi:role="line"
       x="395.38141"
       y="506.61145"
       style="fill:#000000;fill-opacity:1;stroke:none"
       id="tspan4092">needs confirnation</tspan></text>
  <text
     xml:space="preserve"
     style="font-size:12px;font-style:normal;font-weight:normal;line-height:125%;letter-spacing:0px;word-spacing:0px;fill:#000000;fill-opacity:1;stroke:none;font-family:Sans"
     x="168.64502"
     y="488.14374"
     id="text4204"
     sodipodi:linespacing="125%"><tspan
       sodipodi:role="line"
       id="tspan4206"
       x="168.64502"
       y="488.14374">Issue is</tspan><tspan
       sodipodi:role="line"
       x="168.64502"
       y="503.14374"
       id="tspan4208">reopened</tspan></text>
  <text
     xml:space="preserve"
     style="font-size:12px;font-style:normal;font-weight:normal;line-height:125%;letter-spacing:0px;word-spacing:0px;fill:#000000;fill-opacity:1;stroke:none;display:inline;font-family:Sans"
     x="103.81641"
     y="540.79126"
     id="text4204-8"
     sodipodi:linespacing="125%"><tspan
       sodipodi:role="line"
       id="tspan4206-8"
       x="103.81641"
       y="540.79126">Issue is</tspan><tspan
       sodipodi:role="line"
       x="103.81641"
       y="555.79126"
       id="tspan4208-2">reopened</tspan></text>
  <text
     xml:space="preserve"
     style="font-size:12px;font-style:normal;font-weight:normal;line-height:125%;letter-spacing:0px;word-spacing:0px;fill:#000000;fill-opacity:1;stroke:none;font-family:Sans"
     x="307.1828"
     y="422.94946"
     id="text4234"
     sodipodi:linespacing="125%"><tspan
       sodipodi:role="line"
       id="tspan4236"
       x="307.1828"
       y="422.94946">Issue is closed</tspan></text>
  <text
     xml:space="preserve"
     style="font-size:12px;font-style:normal;font-weight:normal;line-height:125%;letter-spacing:0px;word-spacing:0px;fill:#000000;fill-opacity:1;stroke:none;display:inline;font-family:Sans"
     x="173.97464"
     y="231.04822"
     id="text4238-7"
     sodipodi:linespacing="125%"><tspan
       sodipodi:role="line"
       x="173.97464"
       y="231.04822"
       id="tspan4244-7">Issue is</tspan><tspan
       sodipodi:role="line"
       x="173.97464"
       y="246.04822"
       id="tspan4250-1">assigned</tspan></text>
  <text
     xml:space="preserve"
     style="font-size:12px;font-style:normal;font-weight:normal;line-height:125%;letter-spacing:0px;word-spacing:0px;fill:#000000;fill-opacity:1;stroke:none;display:inline;font-family:Sans"
     x="83.396553"
     y="340.12323"
     id="text4238-7-2"
     sodipodi:linespacing="125%"><tspan
       sodipodi:role="line"
       x="83.396553"
       y="340.12323"
       id="tspan4244-7-6">Issue is</tspan><tspan
       sodipodi:role="line"
       x="83.396553"
       y="355.12323"
       id="tspan4250-1-0">assigned</tspan></text>
  <text
     xml:space="preserve"
     style="font-size:12px;font-style:normal;font-weight:normal;line-height:125%;letter-spacing:0px;word-spacing:0px;fill:#000000;fill-opacity:1;stroke:none;display:inline;font-family:Sans"
     x="292.77039"
     y="189.67494"
     id="text4238-7-4"
     sodipodi:linespacing="125%"><tspan
       sodipodi:role="line"
       x="292.77039"
       y="189.67494"
       id="tspan4244-7-9">Issue is</tspan><tspan
       sodipodi:role="line"
       x="292.77039"
       y="204.67494"
       id="tspan4250-1-4">assigned</tspan></text>
  <text
     xml:space="preserve"
     style="font-size:12px;font-style:normal;font-weight:normal;line-height:125%;letter-spacing:0px;word-spacing:0px;fill:#000000;fill-opacity:1;stroke:none;display:inline;font-family:Sans"
     x="345.42731"
     y="249.2274"
     id="text4238-7-6"
     sodipodi:linespacing="125%"><tspan
       sodipodi:role="line"
       x="345.42731"
       y="249.2274"
       id="tspan4244-7-0">Issue is</tspan><tspan
       sodipodi:role="line"
       x="345.42731"
       y="264.22742"
       id="tspan4333">invalid og</tspan><tspan
       sodipodi:role="line"
       x="345.42731"
       y="279.22742"
       id="tspan4335">already </tspan><tspan
       sodipodi:role="line"
       x="345.42731"
       y="294.22739"
       id="tspan4337">fixed</tspan><tspan
       sodipodi:role="line"
       x="345.42731"
       y="309.22739"
       id="tspan4250-1-3" /></text>
  <text
     xml:space="preserve"
     style="font-size:12px;font-style:normal;font-weight:normal;line-height:125%;letter-spacing:0px;word-spacing:0px;fill:#000000;fill-opacity:1;stroke:none;font-family:Sans"
     x="178.04803"
     y="326.41183"
     id="text4349"
     sodipodi:linespacing="125%"><tspan
       sodipodi:role="line"
       id="tspan4351"
       x="178.04803"
       y="326.41183">Assignee </tspan><tspan
       sodipodi:role="line"
       x="178.04803"
       y="341.41183"
       id="tspan4353">proposes</tspan><tspan
       sodipodi:role="line"
       x="178.04803"
       y="356.41183"
       id="tspan4355">solution</tspan></text>
  <flowRoot
     xml:space="preserve"
     id="flowRoot4357"
     style="font-size:12px;font-style:normal;font-weight:normal;line-height:125%;letter-spacing:0px;word-spacing:0px;fill:#000000;fill-opacity:1;stroke:none;font-family:Sans"
     transform="translate(-78.340904,24.26154)"><flowRegion
       id="flowRegion4359"><rect
         id="rect4361"
         width="912.7196"
         height="970.39142"
         x="-80.239082"
         y="-80.239082" /></flowRegion><flowPara
       id="flowPara4363" /></flowRoot>  <text
     xml:space="preserve"
     style="font-size:12px;font-style:normal;font-weight:normal;line-height:125%;letter-spacing:0px;word-spacing:0px;fill:#000000;fill-opacity:1;stroke:none;font-family:Sans"
     x="227.83693"
     y="539.7558"
     id="text3144"
     sodipodi:linespacing="125%"><tspan
       sodipodi:role="line"
       id="tspan3146"
       x="227.83693"
       y="539.7558">Issue is</tspan><tspan
       sodipodi:role="line"
       x="227.83693"
       y="554.7558"
       id="tspan3148">closed</tspan></text>
</svg>
