<?xml version="1.0" encoding="UTF-8" standalone="no"?>
<!-- Created with Inkscape (http://www.inkscape.org/) -->

<svg
   xmlns:svg="http://www.w3.org/2000/svg"
   xmlns="http://www.w3.org/2000/svg"
   version="1.1"
   width="617.43872"
   height="245.3875"
   id="svg2"
   xml:space="preserve"><defs
     id="defs6" /><g
     transform="matrix(1.25,0,0,-1.25,6.24125,246.00125)"
     id="g12"><g
       id="g14"><path
         d="m 173.945,136.909 102.051,0 0,51.024 -102.051,0 0,-51.024 z"
         id="path16"
         style="fill:#cdcdcd;fill-opacity:1;fill-rule:evenodd;stroke:none" /><path
         d="m 173.945,136.909 0,51.032 102.051,0 0,-51.032 -102.051,0 z m 1.801,1.801 0,47.43 98.449,0 0,-47.43 -98.449,0 z"
         id="path18"
         style="fill:none;stroke:#cdcdcd;stroke-width:0.72000003;stroke-linecap:round;stroke-linejoin:round;stroke-miterlimit:10;stroke-opacity:1;stroke-dasharray:none" /><path
         d="m 165.445,145.421 102.051,0 0,51.024 -102.051,0 0,-51.024 z"
         id="path20"
         style="fill:#ffffff;fill-opacity:1;fill-rule:evenodd;stroke:none" /><path
         d="m 165.445,145.421 0,51.02 102.051,0 0,-51.02 -102.051,0 z m 1.801,1.801 0,47.418 98.449,0 0,-47.418 -98.449,0 z"
         id="path22"
         style="fill:none;stroke:#000000;stroke-width:0.72000003;stroke-linecap:round;stroke-linejoin:round;stroke-miterlimit:10;stroke-opacity:1;stroke-dasharray:none" /><text
         transform="matrix(1,0,0,-1,179.11663,178.13)"
         id="text24"><tspan
           x="0 4.879951 7.5439243 11.99188 16.439837 20.887791 25.335747 29.783703 33.783661 37.783623 39.999599 43.999561 48.447517 52.89547 55.11145 57.775421 62.223377 63.999359 65.775345 70.223297 74.671257"
           y="0"
           id="tspan26"
           style="font-size:7.99991989px;font-variant:normal;font-weight:normal;writing-mode:lr-tb;fill:#000000;fill-opacity:1;fill-rule:nonzero;stroke:none;font-family:Arial;-inkscape-font-specification:Arial">Frequency controlled </tspan><tspan
           x="20.460003 26.235945 30.683901 34.683861 39.131817 41.795792 45.79575 50.243706"
           y="9.6000004"
           id="tspan28"
           style="font-size:7.99991989px;font-variant:normal;font-weight:normal;writing-mode:lr-tb;fill:#000000;fill-opacity:1;fill-rule:nonzero;stroke:none;font-family:Arial;-inkscape-font-specification:Arial">Reserves</tspan></text>
<path
         d="m 318.516,94.402 68.031,0 0,34.015 -68.031,0 0,-34.015 z"
         id="path30"
         style="fill:#ffffff;fill-opacity:1;fill-rule:evenodd;stroke:#000000;stroke-width:0.72000003;stroke-linecap:round;stroke-linejoin:round;stroke-miterlimit:10;stroke-opacity:1;stroke-dasharray:none" /><text
         transform="matrix(1,0,0,-1,331.18663,118.6)"
         id="text32"><tspan
           x="0 5.7759423 7.5519247 11.551885 13.767862 18.215818 20.879791 25.327747 29.775702 34.22366 38.223618 42.671574"
           y="0"
           id="tspan34"
           style="font-size:7.99991989px;font-variant:normal;font-weight:normal;writing-mode:lr-tb;fill:#000000;fill-opacity:1;fill-rule:nonzero;stroke:none;font-family:Arial;-inkscape-font-specification:Arial">Disturbance </tspan><tspan
           x="6.010004 8.6739769 13.121933 17.121893 21.569849 24.233822 28.233782 32.681736"
           y="9.6000004"
           id="tspan36"
           style="font-size:7.99991989px;font-variant:normal;font-weight:normal;writing-mode:lr-tb;fill:#000000;fill-opacity:1;fill-rule:nonzero;stroke:none;font-family:Arial;-inkscape-font-specification:Arial">reserves</tspan></text>
<path
         d="m 216.465,145.421 0,-12.762 136.07,0 0,-4.25"
         id="path38"
         style="fill:none;stroke:#000000;stroke-width:0.72000003;stroke-linecap:round;stroke-linejoin:round;stroke-miterlimit:10;stroke-opacity:1;stroke-dasharray:none" /><path
         d="m 63.398,94.402 68.028,0 0,34.015 -68.028,0 0,-34.015 z"
         id="path40"
         style="fill:#ffffff;fill-opacity:1;fill-rule:evenodd;stroke:#000000;stroke-width:0.72000003;stroke-linecap:round;stroke-linejoin:round;stroke-miterlimit:10;stroke-opacity:1;stroke-dasharray:none" /><text
         transform="matrix(1,0,0,-1,66.736629,118.6)"
         id="text42"><tspan
           x="0 5.7759423 10.223898 12.887871 19.551804 23.99976 25.775742 27.99172 32.439674 36.88763 41.335587 43.999561 48.447517 50.663494 52.439476 56.887432 61.335388"
           y="0"
           id="tspan44"
           style="font-size:7.99991989px;font-variant:normal;font-weight:normal;writing-mode:lr-tb;fill:#000000;fill-opacity:1;fill-rule:nonzero;stroke:none;font-family:Arial;-inkscape-font-specification:Arial">Normal operation </tspan><tspan
           x="15.339998 18.003971 22.451927 26.451887 30.899843 33.563816 37.563778 42.01173"
           y="9.6000004"
           id="tspan46"
           style="font-size:7.99991989px;font-variant:normal;font-weight:normal;writing-mode:lr-tb;fill:#000000;fill-opacity:1;fill-rule:nonzero;stroke:none;font-family:Arial;-inkscape-font-specification:Arial">reserves</tspan></text>
<path
         d="m 216.465,145.421 0,-12.762 -119.047,0 0,-4.25"
         id="path48"
         style="fill:none;stroke:#000000;stroke-width:0.72000003;stroke-linecap:round;stroke-linejoin:round;stroke-miterlimit:10;stroke-opacity:1;stroke-dasharray:none" /><path
         d="m 310.016,145.421 93.543,0 0,51.024 -93.543,0 0,-51.024 z"
         id="path50"
         style="fill:#ffffff;fill-opacity:1;fill-rule:evenodd;stroke:none" /><path
         d="m 310.016,145.421 0,51.02 93.539,0 0,-51.02 -93.539,0 z m 1.8,1.801 0,47.418 89.942,0 0,-47.418 -89.942,0 z"
         id="path52"
         style="fill:none;stroke:#000000;stroke-width:0.72000003;stroke-linecap:round;stroke-linejoin:round;stroke-miterlimit:10;stroke-opacity:1;stroke-dasharray:none" /><text
         transform="matrix(1,0,0,-1,320.31663,182.93)"
         id="text54"><tspan
           x="0 5.3279467 9.7759018 13.775863 18.223818 20.439796 23.103769 27.551725 31.551685 35.999641 38.663612 42.663574 47.11153 49.327507 53.327465 57.775421 62.223377 66.671333 68.447319 72.895271"
           y="0"
           id="tspan56"
           style="font-size:7.99991989px;font-variant:normal;font-weight:normal;writing-mode:lr-tb;fill:#000000;fill-opacity:1;fill-rule:nonzero;stroke:none;font-family:Arial;-inkscape-font-specification:Arial">Each reserve should </tspan><tspan
           x="4.6600013 9.1079569 13.555912 17.555872 22.003828 24.219807 26.435783 30.883739 35.331696 37.547672 41.995628 46.443584 48.659561 50.435543 54.883499 59.331455 61.547432 65.995392 68.211365"
           y="9.6000004"
           id="tspan58"
           style="font-size:7.99991989px;font-variant:normal;font-weight:normal;writing-mode:lr-tb;fill:#000000;fill-opacity:1;fill-rule:nonzero;stroke:none;font-family:Arial;-inkscape-font-specification:Arial">have the option of </tspan><tspan
           x="3.3399985 7.7879543 12.235909 16.683865 18.459846 22.907803 27.355759 29.571735 31.787714 36.235668 38.899643 42.899605 47.347557 51.795513 54.011494 55.787476 62.00341 67.779358 69.555336"
           y="19.200001"
           id="tspan60"
           style="font-size:7.99991989px;font-variant:normal;font-weight:normal;writing-mode:lr-tb;fill:#000000;fill-opacity:1;fill-rule:nonzero;stroke:none;font-family:Arial;-inkscape-font-specification:Arial">beeing forced ’ON’ </tspan></text>
<path
         d="m 267.496,170.929 42.52,0"
         id="path62"
         style="fill:none;stroke:#000000;stroke-width:0.72000003;stroke-linecap:round;stroke-linejoin:round;stroke-miterlimit:10;stroke-opacity:1;stroke-dasharray:none" /><path
         d="m -4.633,0.851 85.039,0 0,68.031 -85.039,0 0,-68.031 z"
         id="path64"
         style="fill:#ffffff;fill-opacity:1;fill-rule:evenodd;stroke:#000000;stroke-width:0.72000003;stroke-linecap:round;stroke-linejoin:round;stroke-miterlimit:10;stroke-opacity:1;stroke-dasharray:none" /><text
         transform="matrix(1,0,0,-1,-0.359371,46.870003)"
         id="text66"><tspan
           x="0 5.3279467 9.7759018 14.223858 18.671814 20.447796 24.895752 27.111729 31.559685 36.007641 38.223618 42.223579 46.671532 53.335468 57.783421 59.559406 64.007362 66.223335 70.671295 72.447273 76.447235"
           y="0"
           id="tspan68"
           style="font-size:7.99991989px;font-variant:normal;font-weight:normal;writing-mode:lr-tb;fill:#000000;fill-opacity:1;fill-rule:nonzero;stroke:none;font-family:Arial;-inkscape-font-specification:Arial">Should be completely </tspan><tspan
           x="2.1110029 6.5589585 10.558918 12.774897 14.550879 18.550838 22.998795 25.214771 29.662727 34.110683 36.32666 40.774616 42.990593 45.206573 47.42255 49.638527 54.302483 56.518459 60.966415 65.414368 67.630348 72.0783"
           y="9.6000004"
           id="tspan70"
           style="font-size:7.99991989px;font-variant:normal;font-weight:normal;writing-mode:lr-tb;fill:#000000;fill-opacity:1;fill-rule:nonzero;stroke:none;font-family:Arial;-inkscape-font-specification:Arial">activated at f = 49.9/</tspan><tspan
           x="23.349007 27.796963 32.244919 34.460896 38.908852 41.124828 46.900772 50.90073"
           y="19.200001"
           id="tspan72"
           style="font-size:7.99991989px;font-variant:normal;font-weight:normal;writing-mode:lr-tb;fill:#000000;fill-opacity:1;fill-rule:nonzero;stroke:none;font-family:Arial;-inkscape-font-specification:Arial">50.1 Hz.</tspan></text>
<path
         d="m 97.418,94.402 0,-17.012 -59.531,0 0,-8.512"
         id="path74"
         style="fill:none;stroke:#000000;stroke-width:0.72000003;stroke-linecap:round;stroke-linejoin:round;stroke-miterlimit:10;stroke-opacity:1;stroke-dasharray:none" /><path
         d="m 114.418,0.851 93.543,0 0,68.031 -93.543,0 0,-68.031 z"
         id="path76"
         style="fill:#ffffff;fill-opacity:1;fill-rule:evenodd;stroke:#000000;stroke-width:0.72000003;stroke-linecap:round;stroke-linejoin:round;stroke-miterlimit:10;stroke-opacity:1;stroke-dasharray:none" /><text
         transform="matrix(1,0,0,-1,117.16663,51.670003)"
         id="text78"><tspan
           x="0 2.2159779 4.4319558 6.6479335 8.8639116 13.311867 17.759823 20.423796 24.871752 27.087729 28.863712 32.86367 35.079651 39.527603 41.743584 44.407555 48.855511 53.303467 55.079449 59.527405 61.743382 65.74334 70.191299 74.639252 79.087212 83.604675 88.052635"
           y="0"
           id="tspan80"
           style="font-size:7.99991989px;font-variant:normal;font-weight:normal;writing-mode:lr-tb;fill:#000000;fill-opacity:1;fill-rule:nonzero;stroke:none;font-family:Arial;-inkscape-font-specification:Arial">If there is a rapid change </tspan><tspan
           x="-0.6600014 1.5559764 6.003932 8.2199097 12.667866 17.11582 19.331799 23.779755 25.995731 30.443687 34.891644 37.10762 41.555576 43.771553 49.547497 53.547455 55.763435 57.979412 60.643387 65.091339 69.091301 73.539253 76.203232 80.266975 84.714928 88.71489"
           y="9.6000004"
           id="tspan82"
           style="font-size:7.99991989px;font-variant:normal;font-weight:normal;writing-mode:lr-tb;fill:#000000;fill-opacity:1;fill-rule:nonzero;stroke:none;font-family:Arial;-inkscape-font-specification:Arial">to 49.9/50.1 Hz, reserves </tspan><tspan
           x="4.2199979 8.2199574 12.667913 17.11587 21.563824 23.339808 27.787762 30.00374 34.451694 38.899651 41.115627 43.779602 48.227558 52.675514 57.12347 61.571423 63.787403 68.235359 72.683311 74.899292 79.347244 83.795204"
           y="19.200001"
           id="tspan84"
           style="font-size:7.99991989px;font-variant:normal;font-weight:normal;writing-mode:lr-tb;fill:#000000;fill-opacity:1;fill-rule:nonzero;stroke:none;font-family:Arial;-inkscape-font-specification:Arial">should be reguated up </tspan><tspan
           x="1.1199968 5.5679522 10.015908 15.79185 20.239805 22.455784 28.231726 30.007708 32.223686 36.671642 38.447624 42.89558 45.111557 49.559513 52.215485 56.663441 58.879417 65.54335 67.319336 71.767288 76.215248 78.431221 82.931419"
           y="28.799999"
           id="tspan86"
           style="font-size:7.99991989px;font-variant:normal;font-weight:normal;writing-mode:lr-tb;fill:#000000;fill-opacity:1;fill-rule:nonzero;stroke:none;font-family:Arial;-inkscape-font-specification:Arial">down within 2-3 minutes</tspan></text>
<path
         d="m 97.418,94.402 0,-17.012 63.777,0 0,-8.512"
         id="path88"
         style="fill:none;stroke:#000000;stroke-width:0.72000003;stroke-linecap:round;stroke-linejoin:round;stroke-miterlimit:10;stroke-opacity:1;stroke-dasharray:none" /><path
         d="m 233.477,0.851 102.05,0 0,68.031 -102.05,0 0,-68.031 z"
         id="path90"
         style="fill:#ffffff;fill-opacity:1;fill-rule:evenodd;stroke:#000000;stroke-width:0.72000003;stroke-linecap:round;stroke-linejoin:round;stroke-miterlimit:10;stroke-opacity:1;stroke-dasharray:none" /><text
         transform="matrix(1,0,0,-1,240.25663,46.870003)"
         id="text92"><tspan
           x="0 5.7759423 10.223898 15.99984 20.447796 23.111769 27.559725 31.559685 33.775661 36.439636 40.887592 45.335548 49.783501 51.559483 56.007439 58.223419 59.999401 64.447357 68.895309 71.11129 77.775223 82.261444 86.261398 88.477379"
           y="0"
           id="tspan94"
           style="font-size:7.99991989px;font-variant:normal;font-weight:normal;writing-mode:lr-tb;fill:#000000;fill-opacity:1;fill-rule:nonzero;stroke:none;font-family:Arial;-inkscape-font-specification:Arial">Upwards regulation must </tspan><tspan
           x="8 12.447955 16.89591 19.111889 21.327868 25.775822 27.551804 31.551764 35.999722 38.215698 40.879673 42.655655 46.655613 51.103569 53.319546 55.535526 59.983479 62.199459 66.647415 68.863388 73.311348 77.7593 80.423279"
           y="9.6000004"
           id="tspan96"
           style="font-size:7.99991989px;font-variant:normal;font-weight:normal;writing-mode:lr-tb;fill:#000000;fill-opacity:1;fill-rule:nonzero;stroke:none;font-family:Arial;-inkscape-font-specification:Arial">not give rise to other </tspan><tspan
           x="2.0100038 6.4579597 9.121933 13.569888 18.017843 19.793825 24.241781 30.905714 34.905674 37.121655 38.897636 43.345589 45.561569 47.777546 52.225502 56.673458 58.889435 62.889397 66.889359 70.889313 73.105293 77.553246 84.260002"
           y="19.200001"
           id="tspan98"
           style="font-size:7.99991989px;font-variant:normal;font-weight:normal;writing-mode:lr-tb;fill:#000000;fill-opacity:1;fill-rule:nonzero;stroke:none;font-family:Arial;-inkscape-font-specification:Arial">problems in the system.</tspan></text>
<path
         d="m 369.535,0.851 119.063,0 0,68.031 -119.063,0 0,-68.031 z"
         id="path100"
         style="fill:#ffffff;fill-opacity:1;fill-rule:evenodd;stroke:#000000;stroke-width:0.72000003;stroke-linecap:round;stroke-linejoin:round;stroke-miterlimit:10;stroke-opacity:1;stroke-dasharray:none" /><text
         transform="matrix(1,0,0,-1,372.14663,61.270003)"
         id="text102"><tspan
           x="0 4.879951 9.3279066 13.775863 15.99184 18.655813 23.103769 27.103729 31.551685 34.215656 38.215618 42.663574 44.879551 48.879513 53.327465 57.775421 62.223377 63.999359 68.447319 70.663292 75.111252 79.559204 81.823898 86.271858 90.27182 92.487793 94.263779 98.263741 102.71169 104.92767 109.37563 113.82359"
           y="0"
           id="tspan104"
           style="font-size:7.99991989px;font-variant:normal;font-weight:normal;writing-mode:lr-tb;fill:#000000;fill-opacity:1;fill-rule:nonzero;stroke:none;font-family:Arial;-inkscape-font-specification:Arial">The reserve should be activated </tspan><tspan
           x="12.440003 16.887959 19.103937 21.319914 25.76787 30.215826 32.431805 36.879761 39.095737 44.871677 48.871639 51.087616 55.535572 59.983528 64.43148 66.647461 70.647423 75.095375 79.543335 83.991287 85.767273 90.215225 92.496834 96.944794 101.39275"
           y="9.6000004"
           id="tspan106"
           style="font-size:7.99991989px;font-variant:normal;font-weight:normal;writing-mode:lr-tb;fill:#000000;fill-opacity:1;fill-rule:nonzero;stroke:none;font-family:Arial;-inkscape-font-specification:Arial">at 49.9 Hz and should be </tspan><tspan
           x="2.4499996 6.4499593 10.897915 17.561848 22.009804 23.785786 28.233742 30.44972 34.897675 36.673656 40.673618 42.889595 47.337551 51.337509 53.55349 55.329472 59.32943 63.777386 65.993362 70.441322 72.657295 74.873276 79.321228 83.830002 86.045982 90.493935 92.709915 98.485855 102.48582 104.70179 106.91777 109.13375 111.34972"
           y="19.200001"
           id="tspan108"
           style="font-size:7.99991989px;font-variant:normal;font-weight:normal;writing-mode:lr-tb;fill:#000000;fill-opacity:1;fill-rule:nonzero;stroke:none;font-family:Arial;-inkscape-font-specification:Arial">completely active at 49.5 Hz. It </tspan><tspan
           x="11.339998 18.003931 22.451887 26.451847 28.667826 30.883802 32.659786 37.107742 41.1077 43.771675 48.219631 52.667583 56.667545 61.115501 63.331478 67.779434 71.779396 73.995369 78.443329 82.891281 87.339241 91.827934 94.043915 98.491875 102.49183"
           y="28.799999"
           id="tspan110"
           style="font-size:7.99991989px;font-variant:normal;font-weight:normal;writing-mode:lr-tb;fill:#000000;fill-opacity:1;fill-rule:nonzero;stroke:none;font-family:Arial;-inkscape-font-specification:Arial">must increase as good as </tspan><tspan
           x="4 5.7759824 7.5519643 11.99992 16.447876 20.89583 23.559805 25.335787 29.335747 31.551725 33.327705 37.775661 39.991638 42.207619 46.655575 51.103527 53.319508 55.983479 60.431435 64.879395 69.327347 73.775299 75.99128 80.439232 84.939995 87.155975 91.603935 94.267906 98.715858 103.16382 105.37979 109.82775"
           y="38.400002"
           id="tspan112"
           style="font-size:7.99991989px;font-variant:normal;font-weight:normal;writing-mode:lr-tb;fill:#000000;fill-opacity:1;fill-rule:nonzero;stroke:none;font-family:Arial;-inkscape-font-specification:Arial">linearly in the range 49.9-49.5 </tspan><tspan
           x="50.919994 56.695938 60.695896 62.911877"
           y="48"
           id="tspan114"
           style="font-size:7.99991989px;font-variant:normal;font-weight:normal;writing-mode:lr-tb;fill:#000000;fill-opacity:1;fill-rule:nonzero;stroke:none;font-family:Arial;-inkscape-font-specification:Arial">Hz. </tspan></text>
<path
         d="m 352.535,94.402 0,-21.262 -68.039,0 0,-4.262"
         id="path116"
         style="fill:none;stroke:#000000;stroke-width:0.72000003;stroke-linecap:round;stroke-linejoin:round;stroke-miterlimit:10;stroke-opacity:1;stroke-dasharray:none" /><path
         d="m 352.535,94.402 0,-21.262 76.531,0 0,-4.262"
         id="path118"
         style="fill:none;stroke:#000000;stroke-width:0.72000003;stroke-linecap:round;stroke-linejoin:round;stroke-miterlimit:10;stroke-opacity:1;stroke-dasharray:none" /></g></g></svg>